<svg width="650" height="525" xmlns="http://www.w3.org/2000/svg" xmlns:xlink="http://www.w3.org/1999/xlink" xml:space="preserve" overflow="hidden"><defs><clipPath id="clip0"><rect x="588" y="128" width="650" height="525"/></clipPath><clipPath id="clip1"><rect x="589" y="129" width="649" height="524"/></clipPath><clipPath id="clip2"><rect x="589" y="129" width="649" height="524"/></clipPath><clipPath id="clip3"><rect x="599" y="155" width="630" height="362"/></clipPath><clipPath id="clip4"><rect x="599" y="155" width="630" height="362"/></clipPath><clipPath id="clip5"><rect x="599" y="155" width="630" height="362"/></clipPath><clipPath id="clip6"><rect x="599" y="155" width="630" height="362"/></clipPath></defs><g clip-path="url(#clip0)" transform="translate(-588 -128)"><g clip-path="url(#clip1)"><g clip-path="url(#clip2)"><path d="M0 0 835.834 0 835.834 668.667 0 668.667Z" fill="#FFFFFF" fill-rule="nonzero" fill-opacity="1" transform="matrix(1 0 0 1.00071 462.396 17.9622)"/><g clip-path="url(#clip3)"><path d="M160.352 481.406 161.328 481.301 162.291 481.197 163.266 481.092 164.241 480.976 165.205 480.86 166.18 480.744 167.144 480.628 168.119 480.5 169.082 480.384 170.057 480.245 171.021 480.117 171.996 479.978 172.971 479.838 173.935 479.699 174.91 479.548 175.873 479.397 176.849 479.246 177.812 479.084 178.787 478.921 179.751 478.759 180.726 478.585 181.701 478.41 182.665 478.225 183.64 478.039 184.603 477.853 185.578 477.668 186.542 477.47 187.517 477.261 188.481 477.052 189.456 476.843 190.431 476.623 191.394 476.402 192.37 476.182 193.333 475.949 194.308 475.706 195.272 475.462 196.247 475.218 197.21 474.963 198.186 474.696 199.161 474.44 200.124 474.162 201.099 473.883 202.063 473.604 203.038 473.314 204.002 473.012 204.977 472.711 205.94 472.397 206.915 472.084 207.89 471.759 208.854 471.434 209.829 471.097 210.793 470.749 211.768 470.4 212.731 470.041 213.706 469.669 214.67 469.298 215.645 468.914 216.62 468.52 217.584 468.125 218.559 467.719 219.523 467.312 220.498 466.883 221.461 466.453 222.436 466.012 223.4 465.571 224.375 465.118 225.35 464.654 226.314 464.178 227.289 463.691 228.252 463.203 229.227 462.704 230.191 462.193 231.166 461.671 232.13 461.137 233.105 460.603 234.08 460.057 235.043 459.5 236.019 458.931 236.982 458.35 237.957 457.758 238.921 457.155 239.896 456.551 240.859 455.924 241.835 455.297 242.81 454.647 243.773 453.997 244.748 453.335 245.712 452.662 246.687 451.977 247.651 451.269 248.626 450.561 249.589 449.841 250.564 449.11 251.54 448.367 252.503 447.612 253.478 446.846 254.442 446.068 255.417 445.267 256.38 444.466 257.356 443.654 258.319 442.818 259.294 441.982 260.269 441.123 261.233 440.264 262.208 439.382 263.172 438.488 264.147 437.582 265.11 436.665 266.085 435.737 267.049 434.796 268.024 433.833 268.999 432.869 269.963 431.882 270.938 430.884 271.901 429.886 272.877 428.853 273.84 427.819 274.815 426.775 275.779 425.707 276.754 424.639 277.729 423.547 278.693 422.444 279.668 421.33 280.631 420.192 281.606 419.055 282.57 417.894 283.545 416.721 284.509 415.537 285.484 414.342 286.459 413.134 287.422 411.904 288.398 410.673 289.361 409.419 290.336 408.154 291.3 406.877 292.275 405.577 293.238 404.277 294.214 402.953 295.189 401.618 296.152 400.272 297.127 398.913 298.091 397.544 299.066 396.162 300.03 394.769 301.005 393.353 301.968 391.925 302.943 390.497 303.919 389.046 304.882 387.583 305.857 386.109 306.821 384.623 307.796 383.125 308.759 381.616 309.735 380.096 310.698 378.552 311.673 377.008 312.648 375.452 313.612 373.885 314.587 372.306 315.551 370.716 316.526 369.114 317.489 367.5 318.464 365.875 319.428 364.238 320.403 362.589 321.378 360.941 322.342 359.269 323.317 357.598 324.28 355.914 325.255 354.219 326.219 352.525 327.194 350.806 328.158 349.088 329.133 347.37 330.108 345.629 331.072 343.888 332.047 342.135 333.01 340.382 333.985 338.617 334.949 336.841 335.924 335.065 336.888 333.277 337.863 331.489 338.838 329.69 339.801 327.891 340.776 326.08 341.74 324.269 342.715 322.458 343.679 320.635 344.654 318.813 345.617 316.978 346.592 315.156 347.568 313.322 348.531 311.487 349.506 309.642 350.47 307.807 351.445 305.962 352.409 304.116 353.384 302.282 354.347 300.436 355.322 298.59 356.297 296.744 357.261 294.91 358.236 293.064 359.2 291.23 360.175 289.384 361.138 287.55 362.113 285.716 363.077 283.893 364.052 282.059 365.027 280.237 365.991 278.426 366.966 276.603 367.93 274.804 368.905 272.993 369.868 271.205 370.843 269.406 371.807 267.629 372.782 265.853 373.757 264.077 374.721 262.313 375.696 260.56 376.659 258.818 377.634 257.089 378.598 255.359 379.573 253.641 380.537 251.934 381.512 250.239 382.487 248.556 383.45 246.884 384.426 245.224 385.389 243.588 386.364 241.951 387.328 240.326 388.303 238.723 389.266 237.133 390.242 235.554 391.217 233.987 392.18 232.443 393.155 230.911 394.119 229.402 395.094 227.904 396.058 226.418 397.033 224.955 397.996 223.504 398.971 222.076 399.947 220.672 400.91 219.279 401.885 217.909 402.849 216.562 403.824 215.227 404.787 213.915 405.763 212.627 406.726 211.362 407.701 210.108 408.676 208.889 409.64 207.682 410.615 206.509 411.579 205.348 412.554 204.211 413.517 203.096 414.492 202.016 415.456 200.948 416.431 199.915 417.406 198.905 418.37 197.919 419.345 196.955 420.308 196.015 421.284 195.098 422.247 194.215 423.222 193.356 424.186 192.532 425.161 191.719 426.136 190.942 427.1 190.199 428.075 189.467 429.038 188.782 430.013 188.109 430.977 187.471 431.952 186.867 432.916 186.286 433.891 185.729 434.866 185.207 435.829 184.708 436.805 184.243 437.768 183.814 438.743 183.396 439.707 183.024 440.682 182.676 441.645 182.363 442.621 182.073 443.596 181.817 444.559 181.585 445.534 181.388 446.498 181.225 447.473 181.086 448.437 180.981 449.412 180.9 450.375 180.854 451.35 180.842 452.326 180.854 453.289 180.9 454.264 180.981 455.228 181.086 456.203 181.225 457.166 181.388 458.142 181.585 459.105 181.817 460.08 182.073 461.055 182.363 462.019 182.676 462.994 183.024 463.958 183.396 464.933 183.814 465.896 184.243 466.871 184.708 467.835 185.207 468.81 185.729 469.785 186.286 470.749 186.867 471.724 187.471 472.687 188.109 473.662 188.782 474.626 189.467 475.601 190.199 476.565 190.942 477.54 191.719 478.515 192.532 479.478 193.356 480.454 194.215 481.417 195.098 482.392 196.015 483.356 196.955 484.331 197.919 485.295 198.905 486.27 199.915 487.245 200.948 488.208 202.016 489.183 203.096 490.147 204.211 491.122 205.348 492.086 206.509 493.061 207.682 494.024 208.889 494.999 210.108 495.975 211.362 496.938 212.627 497.913 213.915 498.877 215.227 499.852 216.562 500.815 217.909 501.791 219.279 502.754 220.672 503.729 222.076 504.704 223.504 505.668 224.955 506.643 226.418 507.607 227.904 508.582 229.402 509.545 230.911 510.52 232.443 511.484 233.987 512.459 235.554 513.434 237.133 514.398 238.723 515.373 240.326 516.336 241.951 517.312 243.588 518.275 245.224 519.25 246.884 520.214 248.556 521.189 250.239 522.164 251.934 523.128 253.641 524.103 255.359 525.066 257.089 526.041 258.818 527.005 260.56 527.98 262.313 528.944 264.077 529.919 265.853 530.894 267.629 531.857 269.406 532.833 271.205 533.796 272.993 534.771 274.804 535.735 276.603 536.71 278.426 537.673 280.237 538.649 282.059 539.624 283.893 540.587 285.716 541.562 287.55 542.526 289.384 543.501 291.23 544.465 293.064 545.44 294.91 546.403 296.744 547.378 298.59 548.354 300.436 549.317 302.282 550.292 304.116 551.256 305.962 552.231 307.807 553.194 309.642 554.17 311.487 555.133 313.322 556.108 315.156 557.083 316.978 558.047 318.813 559.022 320.635 559.986 322.458 560.961 324.269 561.924 326.08 562.899 327.891 563.863 329.69 564.838 331.489 565.813 333.277 566.777 335.065 567.752 336.841 568.715 338.617 569.69 340.382 570.654 342.135 571.629 343.888 572.593 345.629 573.568 347.37 574.543 349.088 575.507 350.806 576.482 352.525 577.445 354.219 578.42 355.914 579.384 357.598 580.359 359.269 581.323 360.941 582.298 362.589 583.273 364.238 584.236 365.875 585.211 367.5 586.175 369.114 587.15 370.716 588.114 372.306 589.089 373.885 590.052 375.452 591.028 377.008 592.003 378.552 592.966 380.096 593.941 381.616 594.905 383.125 595.88 384.623 596.844 386.109 597.819 387.583 598.782 389.046 599.757 390.497 600.732 391.925 601.696 393.353 602.671 394.769 603.635 396.162 604.61 397.544 605.573 398.913 606.548 400.272 607.512 401.618 608.487 402.953 609.462 404.277 610.426 405.577 611.401 406.877 612.365 408.154 613.34 409.419 614.303 410.673 615.278 411.904 616.242 413.134 617.217 414.342 618.192 415.537 619.156 416.721 620.131 417.894 621.094 419.055 622.069 420.192 623.033 421.33 624.008 422.444 624.972 423.547 625.947 424.639 626.922 425.707 627.885 426.775 628.861 427.819 629.824 428.853 630.799 429.886 631.763 430.884 632.738 431.882 633.701 432.869 634.677 433.833 635.652 434.796 636.615 435.737 637.59 436.665 638.554 437.582 639.529 438.488 640.493 439.382 641.468 440.264 642.431 441.123 643.406 441.982 644.382 442.818 645.345 443.654 646.32 444.466 647.284 445.267 648.259 446.068 649.222 446.846 650.198 447.612 651.161 448.367 652.136 449.11 653.111 449.841 654.075 450.561 655.05 451.269 656.014 451.977 656.989 452.662 657.952 453.335 658.927 453.997 659.891 454.647 660.866 455.297 661.841 455.924 662.805 456.551 663.78 457.155 664.743 457.758 665.719 458.35 666.682 458.931 667.657 459.5 668.621 460.057 669.596 460.603 670.571 461.137 671.535 461.671 672.51 462.193 673.473 462.704 674.448 463.203 675.412 463.691 676.387 464.178 677.351 464.654 678.326 465.118 679.301 465.571 680.264 466.012 681.24 466.453 682.203 466.883 683.178 467.312 684.142 467.719 685.117 468.125 686.08 468.52 687.056 468.914 688.031 469.298 688.994 469.669 689.969 470.041 690.933 470.4 691.908 470.749 692.872 471.097 693.847 471.434 694.81 471.759 695.785 472.084 696.761 472.397 697.724 472.711 698.699 473.012 699.663 473.314 700.638 473.604 701.601 473.883 702.577 474.162 703.54 474.44 704.515 474.696 705.49 474.963 706.454 475.218 707.429 475.462 708.393 475.706 709.368 475.949 710.331 476.182 711.306 476.402 712.27 476.623 713.245 476.843 714.22 477.052 715.184 477.261 716.159 477.47 717.122 477.668 718.098 477.853 719.061 478.039 720.036 478.225 721 478.41 721.975 478.585 722.95 478.759 723.914 478.921 724.889 479.084 725.852 479.246 726.827 479.397 727.791 479.548 728.766 479.699 729.729 479.838 730.705 479.978 731.68 480.117 732.643 480.245 733.618 480.384 734.582 480.5 735.557 480.628 736.521 480.744 737.496 480.86 738.459 480.976 739.435 481.092 740.41 481.197 741.373 481.301 742.348 481.406" stroke="#000000" stroke-width="0.87066" stroke-linecap="round" stroke-linejoin="round" stroke-miterlimit="10" stroke-opacity="1" fill="none" fill-rule="nonzero" transform="matrix(1 0 0 1.00071 462.396 17.9622)"/></g><text fill="#000000" fill-opacity="1" font-family="Arial,Arial_MSFontService,sans-serif" font-style="normal" font-variant="normal" font-weight="400" font-stretch="normal" font-size="24" text-anchor="start" direction="ltr" writing-mode="lr-tb" unicode-bidi="normal" text-decoration="none" transform="matrix(1.16088 0 0 1.16171 877.353 644)">Score</text><g clip-path="url(#clip4)"><path d="M451.35 498.157 451.35 137.077" stroke="#8B0000" stroke-width="0.87066" stroke-linecap="round" stroke-linejoin="round" stroke-miterlimit="10" stroke-opacity="1" fill="none" fill-rule="nonzero" transform="matrix(1 0 0 1.00071 462.396 17.9622)"/></g><g clip-path="url(#clip5)"><path d="M354.347 498.157 354.347 137.077" stroke="#00008B" stroke-width="0.87066" stroke-linecap="round" stroke-linejoin="round" stroke-miterlimit="10" stroke-opacity="1" fill="none" fill-rule="nonzero" transform="matrix(1 0 0 1.00071 462.396 17.9622)"/></g><g clip-path="url(#clip6)"><path d="M548.354 498.157 548.354 137.077" stroke="#00008B" stroke-width="0.87066" stroke-linecap="round" stroke-linejoin="round" stroke-miterlimit="10" stroke-opacity="1" fill="none" fill-rule="nonzero" transform="matrix(1 0 0 1.00071 462.396 17.9622)"/></g><path d="M137.077 498.157 765.624 498.157" stroke="#000000" stroke-width="0.87066" stroke-linecap="round" stroke-linejoin="round" stroke-miterlimit="10" stroke-opacity="1" fill="none" fill-rule="nonzero" transform="matrix(1 0 0 1.00071 462.396 17.9622)"/><path d="M354.347 498.157 354.347 514.874" stroke="#000000" stroke-width="0.87066" stroke-linecap="round" stroke-linejoin="round" stroke-miterlimit="10" stroke-opacity="1" fill="none" fill-rule="nonzero" transform="matrix(1 0 0 1.00071 462.396 17.9622)"/><path d="M451.35 498.157 451.35 514.874" stroke="#000000" stroke-width="0.87066" stroke-linecap="round" stroke-linejoin="round" stroke-miterlimit="10" stroke-opacity="1" fill="none" fill-rule="nonzero" transform="matrix(1 0 0 1.00071 462.396 17.9622)"/><path d="M548.354 498.157 548.354 514.874" stroke="#000000" stroke-width="0.87066" stroke-linecap="round" stroke-linejoin="round" stroke-miterlimit="10" stroke-opacity="1" fill="none" fill-rule="nonzero" transform="matrix(1 0 0 1.00071 462.396 17.9622)"/><text fill="#000000" fill-opacity="1" font-family="Arial,Arial_MSFontService,sans-serif" font-style="normal" font-variant="normal" font-weight="400" font-stretch="normal" font-size="24" text-anchor="start" direction="ltr" writing-mode="lr-tb" unicode-bidi="normal" text-decoration="none" transform="matrix(1.16088 0 0 1.16171 786.828 571)">μ<tspan fill="#000000" fill-opacity="1" font-family="Arial,Arial_MSFontService,sans-serif" font-style="normal" font-variant="normal" font-weight="400" font-stretch="normal" font-size="24" text-anchor="start" direction="ltr" writing-mode="lr-tb" unicode-bidi="normal" text-decoration="none" x="18.27" y="0">−</tspan><tspan fill="#000000" fill-opacity="1" font-family="Arial,Arial_MSFontService,sans-serif" font-style="normal" font-variant="normal" font-weight="400" font-stretch="normal" font-size="24" text-anchor="start" direction="ltr" writing-mode="lr-tb" unicode-bidi="normal" text-decoration="none" x="36.73" y="0">σ</tspan><tspan fill="#000000" fill-opacity="1" font-family="Arial,Arial_MSFontService,sans-serif" font-style="normal" font-variant="normal" font-weight="400" font-stretch="normal" font-size="24" text-anchor="start" direction="ltr" writing-mode="lr-tb" unicode-bidi="normal" text-decoration="none" x="102.42" y="0">μ</tspan><tspan fill="#000000" fill-opacity="1" font-family="Arial,Arial_MSFontService,sans-serif" font-style="normal" font-variant="normal" font-weight="400" font-stretch="normal" font-size="24" text-anchor="start" direction="ltr" writing-mode="lr-tb" unicode-bidi="normal" text-decoration="none" x="167.11" y="0">μ</tspan><tspan fill="#000000" fill-opacity="1" font-family="Arial,Arial_MSFontService,sans-serif" font-style="normal" font-variant="normal" font-weight="400" font-stretch="normal" font-size="24" text-anchor="start" direction="ltr" writing-mode="lr-tb" unicode-bidi="normal" text-decoration="none" x="185.39" y="0">+</tspan><tspan fill="#000000" fill-opacity="1" font-family="Arial,Arial_MSFontService,sans-serif" font-style="normal" font-variant="normal" font-weight="400" font-stretch="normal" font-size="24" text-anchor="start" direction="ltr" writing-mode="lr-tb" unicode-bidi="normal" text-decoration="none" x="203.84" y="0">σ</tspan></text></g></g></g></svg>