<svg width="552" height="460" xmlns="http://www.w3.org/2000/svg" xmlns:xlink="http://www.w3.org/1999/xlink" xml:space="preserve" overflow="hidden"><defs><clipPath id="clip0"><rect x="38" y="128" width="552" height="460"/></clipPath><clipPath id="clip1"><rect x="39" y="129" width="551" height="459"/></clipPath><clipPath id="clip2"><rect x="39" y="129" width="551" height="459"/></clipPath><clipPath id="clip3"><rect x="27" y="141" width="558" height="321"/></clipPath><clipPath id="clip4"><rect x="27" y="141" width="558" height="321"/></clipPath><clipPath id="clip5"><rect x="27" y="141" width="558" height="321"/></clipPath><clipPath id="clip6"><rect x="27" y="141" width="558" height="321"/></clipPath><clipPath id="clip7"><rect x="27" y="141" width="558" height="321"/></clipPath><clipPath id="clip8"><rect x="27" y="141" width="558" height="321"/></clipPath></defs><g clip-path="url(#clip0)" transform="translate(-38 -128)"><g clip-path="url(#clip1)"><g clip-path="url(#clip2)"><path d="M0 0 740.934 0 740.934 592.748 0 592.748Z" fill="#FFFFFF" fill-rule="nonzero" fill-opacity="1" transform="matrix(1.00137 0 0 1 -94.6619 20.0174)"/><g clip-path="url(#clip3)"><path d="M142.146 426.747 143.011 426.655 143.865 426.562 144.729 426.47 145.594 426.367 146.448 426.264 147.312 426.161 148.166 426.058 149.031 425.945 149.885 425.842 150.749 425.718 151.603 425.605 152.468 425.482 153.332 425.358 154.186 425.235 155.051 425.101 155.905 424.967 156.769 424.833 157.624 424.689 158.488 424.545 159.342 424.401 160.206 424.247 161.071 424.092 161.925 423.928 162.789 423.763 163.644 423.598 164.508 423.434 165.362 423.259 166.227 423.074 167.081 422.888 167.945 422.703 168.81 422.508 169.664 422.312 170.528 422.117 171.382 421.911 172.247 421.695 173.101 421.479 173.965 421.262 174.819 421.036 175.684 420.799 176.548 420.573 177.402 420.326 178.267 420.079 179.121 419.832 179.985 419.575 180.839 419.307 181.704 419.04 182.558 418.762 183.422 418.484 184.287 418.196 185.141 417.908 186.005 417.609 186.86 417.3 187.724 416.992 188.578 416.673 189.443 416.343 190.297 416.014 191.161 415.674 192.026 415.325 192.88 414.975 193.744 414.615 194.598 414.254 195.463 413.874 196.317 413.493 197.181 413.102 198.035 412.711 198.9 412.309 199.764 411.898 200.618 411.476 201.483 411.044 202.337 410.611 203.201 410.169 204.055 409.716 204.92 409.253 205.774 408.78 206.638 408.306 207.503 407.823 208.357 407.329 209.221 406.824 210.076 406.31 210.94 405.785 211.794 405.25 212.658 404.715 213.513 404.159 214.377 403.603 215.241 403.027 216.096 402.451 216.96 401.864 217.814 401.267 218.679 400.66 219.533 400.033 220.397 399.405 221.251 398.767 222.116 398.118 222.98 397.46 223.834 396.791 224.699 396.112 225.553 395.422 226.417 394.712 227.271 394.002 228.136 393.282 228.99 392.541 229.854 391.8 230.719 391.038 231.573 390.277 232.437 389.495 233.291 388.702 234.156 387.9 235.01 387.087 235.874 386.264 236.729 385.43 237.593 384.576 238.457 383.722 239.312 382.847 240.176 381.962 241.03 381.077 241.895 380.161 242.749 379.245 243.613 378.319 244.467 377.372 245.332 376.426 246.196 375.458 247.05 374.481 247.915 373.493 248.769 372.484 249.633 371.476 250.487 370.447 251.352 369.407 252.206 368.358 253.07 367.298 253.935 366.227 254.789 365.137 255.653 364.046 256.507 362.934 257.372 361.813 258.226 360.681 259.09 359.528 259.945 358.376 260.809 357.202 261.673 356.019 262.527 354.825 263.392 353.621 264.246 352.407 265.11 351.182 265.965 349.947 266.829 348.692 267.683 347.426 268.548 346.16 269.412 344.874 270.266 343.577 271.131 342.271 271.985 340.953 272.849 339.626 273.703 338.288 274.568 336.94 275.422 335.571 276.286 334.203 277.151 332.824 278.005 331.434 278.869 330.035 279.723 328.625 280.588 327.205 281.442 325.774 282.306 324.334 283.16 322.883 284.025 321.421 284.889 319.96 285.743 318.478 286.608 316.996 287.462 315.504 288.326 314.002 289.181 312.499 290.045 310.976 290.899 309.453 291.764 307.93 292.628 306.387 293.482 304.843 294.346 303.289 295.201 301.735 296.065 300.171 296.919 298.597 297.784 297.022 298.638 295.437 299.502 293.853 300.367 292.257 301.221 290.662 302.085 289.057 302.939 287.452 303.804 285.846 304.658 284.231 305.522 282.615 306.376 280.989 307.241 279.373 308.105 277.747 308.959 276.122 309.824 274.485 310.678 272.859 311.542 271.223 312.396 269.587 313.261 267.961 314.115 266.325 314.979 264.689 315.844 263.052 316.698 261.426 317.562 259.79 318.417 258.164 319.281 256.528 320.135 254.902 321 253.276 321.854 251.66 322.718 250.035 323.583 248.419 324.437 246.813 325.301 245.198 326.155 243.603 327.02 241.997 327.874 240.413 328.738 238.818 329.592 237.243 330.457 235.669 331.321 234.094 332.175 232.53 333.04 230.976 333.894 229.432 334.758 227.899 335.612 226.366 336.477 224.843 337.331 223.33 338.195 221.828 339.06 220.335 339.914 218.854 340.778 217.382 341.633 215.931 342.497 214.48 343.351 213.039 344.215 211.619 345.07 210.209 345.934 208.81 346.798 207.42 347.653 206.052 348.517 204.693 349.371 203.356 350.236 202.028 351.09 200.711 351.954 199.414 352.808 198.128 353.673 196.862 354.537 195.617 355.391 194.382 356.256 193.168 357.11 191.974 357.974 190.791 358.828 189.628 359.693 188.485 360.547 187.364 361.411 186.252 362.276 185.172 363.13 184.102 363.994 183.062 364.848 182.033 365.713 181.025 366.567 180.037 367.431 179.08 368.286 178.133 369.15 177.217 370.014 176.322 370.869 175.447 371.733 174.593 372.587 173.759 373.452 172.946 374.306 172.164 375.17 171.403 376.024 170.672 376.889 169.952 377.753 169.262 378.607 168.604 379.472 167.955 380.326 167.348 381.19 166.751 382.044 166.185 382.909 165.65 383.763 165.136 384.627 164.642 385.492 164.179 386.346 163.736 387.21 163.325 388.064 162.944 388.929 162.573 389.783 162.244 390.647 161.935 391.502 161.657 392.366 161.4 393.23 161.174 394.085 160.968 394.949 160.793 395.803 160.649 396.667 160.526 397.522 160.433 398.386 160.361 399.24 160.32 400.105 160.309 400.969 160.32 401.823 160.361 402.688 160.433 403.542 160.526 404.406 160.649 405.26 160.793 406.125 160.968 406.979 161.174 407.843 161.4 408.708 161.657 409.562 161.935 410.426 162.244 411.28 162.573 412.145 162.944 412.999 163.325 413.863 163.736 414.717 164.179 415.582 164.642 416.446 165.136 417.3 165.65 418.165 166.185 419.019 166.751 419.883 167.348 420.738 167.955 421.602 168.604 422.456 169.262 423.321 169.952 424.185 170.672 425.039 171.403 425.904 172.164 426.758 172.946 427.622 173.759 428.476 174.593 429.341 175.447 430.195 176.322 431.059 177.217 431.924 178.133 432.778 179.08 433.642 180.037 434.496 181.025 435.361 182.033 436.215 183.062 437.079 184.102 437.933 185.172 438.798 186.252 439.662 187.364 440.516 188.485 441.381 189.628 442.235 190.791 443.099 191.974 443.954 193.168 444.818 194.382 445.672 195.617 446.536 196.862 447.401 198.128 448.255 199.414 449.119 200.711 449.974 202.028 450.838 203.356 451.692 204.693 452.557 206.052 453.411 207.42 454.275 208.81 455.14 210.209 455.994 211.619 456.858 213.039 457.712 214.48 458.577 215.931 459.431 217.382 460.295 218.854 461.149 220.335 462.014 221.828 462.878 223.33 463.732 224.843 464.597 226.366 465.451 227.899 466.315 229.432 467.169 230.976 468.034 232.53 468.888 234.094 469.752 235.669 470.617 237.243 471.471 238.818 472.335 240.413 473.19 241.997 474.054 243.603 474.908 245.198 475.773 246.813 476.627 248.419 477.491 250.035 478.355 251.66 479.21 253.276 480.074 254.902 480.928 256.528 481.793 258.164 482.647 259.79 483.511 261.426 484.365 263.052 485.23 264.689 486.094 266.325 486.948 267.961 487.813 269.587 488.667 271.223 489.531 272.859 490.385 274.485 491.25 276.122 492.104 277.747 492.968 279.373 493.833 280.989 494.687 282.615 495.551 284.231 496.406 285.846 497.27 287.452 498.124 289.057 498.988 290.662 499.843 292.257 500.707 293.853 501.571 295.437 502.426 297.022 503.29 298.597 504.144 300.171 505.009 301.735 505.863 303.289 506.727 304.843 507.581 306.387 508.446 307.93 509.31 309.453 510.164 310.976 511.029 312.499 511.883 314.002 512.747 315.504 513.601 316.996 514.466 318.478 515.32 319.96 516.184 321.421 517.049 322.883 517.903 324.334 518.767 325.774 519.621 327.205 520.486 328.625 521.34 330.035 522.204 331.434 523.059 332.824 523.923 334.203 524.787 335.571 525.642 336.94 526.506 338.288 527.36 339.626 528.224 340.953 529.079 342.271 529.943 343.577 530.797 344.874 531.662 346.16 532.526 347.426 533.38 348.692 534.245 349.947 535.099 351.182 535.963 352.407 536.817 353.621 537.682 354.825 538.536 356.019 539.4 357.202 540.265 358.376 541.119 359.528 541.983 360.681 542.837 361.813 543.702 362.934 544.556 364.046 545.42 365.137 546.275 366.227 547.139 367.298 548.003 368.358 548.857 369.407 549.722 370.447 550.576 371.476 551.44 372.484 552.295 373.493 553.159 374.481 554.013 375.458 554.878 376.426 555.742 377.372 556.596 378.319 557.461 379.245 558.315 380.161 559.179 381.077 560.033 381.962 560.898 382.847 561.752 383.722 562.616 384.576 563.481 385.43 564.335 386.264 565.199 387.087 566.053 387.9 566.918 388.702 567.772 389.495 568.636 390.277 569.49 391.038 570.355 391.8 571.219 392.541 572.073 393.282 572.938 394.002 573.792 394.712 574.656 395.422 575.511 396.112 576.375 396.791 577.229 397.46 578.094 398.118 578.958 398.767 579.812 399.405 580.677 400.033 581.531 400.66 582.395 401.267 583.249 401.864 584.114 402.451 584.968 403.027 585.832 403.603 586.697 404.159 587.551 404.715 588.415 405.25 589.269 405.785 590.134 406.31 590.988 406.824 591.852 407.329 592.706 407.823 593.571 408.306 594.435 408.78 595.289 409.253 596.154 409.716 597.008 410.169 597.872 410.611 598.727 411.044 599.591 411.476 600.445 411.898 601.309 412.309 602.174 412.711 603.028 413.102 603.892 413.493 604.747 413.874 605.611 414.254 606.465 414.615 607.33 414.975 608.184 415.325 609.048 415.674 609.913 416.014 610.767 416.343 611.631 416.673 612.485 416.992 613.35 417.3 614.204 417.609 615.068 417.908 615.922 418.196 616.787 418.484 617.651 418.762 618.505 419.04 619.37 419.307 620.224 419.575 621.088 419.832 621.942 420.079 622.807 420.326 623.661 420.573 624.525 420.799 625.39 421.036 626.244 421.262 627.108 421.479 627.963 421.695 628.827 421.911 629.681 422.117 630.545 422.312 631.4 422.508 632.264 422.703 633.128 422.888 633.983 423.074 634.847 423.259 635.701 423.434 636.566 423.598 637.42 423.763 638.284 423.928 639.138 424.092 640.003 424.247 640.867 424.401 641.721 424.545 642.586 424.689 643.44 424.833 644.304 424.967 645.158 425.101 646.023 425.235 646.877 425.358 647.741 425.482 648.606 425.605 649.46 425.718 650.324 425.842 651.179 425.945 652.043 426.058 652.897 426.161 653.761 426.264 654.616 426.367 655.48 426.47 656.344 426.562 657.199 426.655 658.063 426.747" stroke="#000000" stroke-width="0.771807" stroke-linecap="round" stroke-linejoin="round" stroke-miterlimit="10" stroke-opacity="1" fill="none" fill-rule="nonzero" transform="matrix(1.00137 0 0 1 -94.6619 20.0174)"/></g><text fill="#000000" fill-opacity="1" font-family="Arial,Arial_MSFontService,sans-serif" font-style="normal" font-variant="normal" font-weight="400" font-stretch="normal" font-size="24" text-anchor="start" direction="ltr" writing-mode="lr-tb" unicode-bidi="normal" text-decoration="none" transform="matrix(1.03048 0 0 1.02908 273.684 574)">Score</text><g clip-path="url(#clip4)"><path d="M142.146 429.413 143.011 429.402 143.865 429.392 144.729 429.382 145.594 429.371 146.448 429.351 147.312 429.341 148.166 429.32 149.031 429.31 149.885 429.289 150.749 429.279 151.603 429.258 152.468 429.238 153.332 429.227 154.186 429.207 155.051 429.186 155.905 429.166 156.769 429.145 157.624 429.125 158.488 429.104 159.342 429.083 160.206 429.052 161.071 429.032 161.925 429.011 162.789 428.98 163.644 428.96 164.508 428.929 165.362 428.898 166.227 428.867 167.081 428.836 167.945 428.806 168.81 428.775 169.664 428.744 170.528 428.713 171.382 428.682 172.247 428.641 173.101 428.6 173.965 428.569 174.819 428.528 175.684 428.487 176.548 428.445 177.402 428.404 178.267 428.353 179.121 428.312 179.985 428.26 180.839 428.219 181.704 428.168 182.558 428.116 183.422 428.065 184.287 428.003 185.141 427.951 186.005 427.89 186.86 427.838 187.724 427.776 188.578 427.715 189.443 427.643 190.297 427.581 191.161 427.509 192.026 427.447 192.88 427.375 193.744 427.293 194.598 427.221 195.463 427.138 196.317 427.066 197.181 426.984 198.035 426.891 198.9 426.809 199.764 426.716 200.618 426.624 201.483 426.531 202.337 426.439 203.201 426.336 204.055 426.233 204.92 426.13 205.774 426.027 206.638 425.914 207.503 425.801 208.357 425.687 209.221 425.564 210.076 425.44 210.94 425.317 211.794 425.183 212.658 425.06 213.513 424.926 214.377 424.782 215.241 424.638 216.096 424.494 216.96 424.35 217.814 424.195 218.679 424.041 219.533 423.876 220.397 423.712 221.251 423.547 222.116 423.372 222.98 423.197 223.834 423.012 224.699 422.827 225.553 422.641 226.417 422.446 227.271 422.25 228.136 422.044 228.99 421.839 229.854 421.623 230.719 421.406 231.573 421.19 232.437 420.954 233.291 420.727 234.156 420.491 235.01 420.244 235.874 419.997 236.729 419.739 237.593 419.482 238.457 419.215 239.312 418.947 240.176 418.669 241.03 418.391 241.895 418.103 242.749 417.805 243.613 417.506 244.467 417.198 245.332 416.879 246.196 416.56 247.05 416.23 247.915 415.901 248.769 415.561 249.633 415.211 250.487 414.862 251.352 414.491 252.206 414.131 253.07 413.75 253.935 413.369 254.789 412.978 255.653 412.577 256.507 412.165 257.372 411.754 258.226 411.332 259.09 410.9 259.945 410.467 260.809 410.015 261.673 409.562 262.527 409.099 263.392 408.625 264.246 408.142 265.11 407.658 265.965 407.154 266.829 406.65 267.683 406.135 268.548 405.61 269.412 405.075 270.266 404.53 271.131 403.974 271.985 403.408 272.849 402.842 273.703 402.255 274.568 401.669 275.422 401.062 276.286 400.454 277.151 399.827 278.005 399.199 278.869 398.551 279.723 397.902 280.588 397.233 281.442 396.565 282.306 395.875 283.16 395.186 284.025 394.476 284.889 393.766 285.743 393.035 286.608 392.294 287.462 391.543 288.326 390.791 289.181 390.02 290.045 389.227 290.899 388.435 291.764 387.632 292.628 386.819 293.482 385.986 294.346 385.142 295.201 384.298 296.065 383.434 296.919 382.559 297.784 381.674 298.638 380.768 299.502 379.863 300.367 378.937 301.221 378 302.085 377.064 302.939 376.096 303.804 375.129 304.658 374.151 305.522 373.153 306.376 372.155 307.241 371.136 308.105 370.107 308.959 369.057 309.824 368.008 310.678 366.938 311.542 365.867 312.396 364.776 313.261 363.675 314.115 362.564 314.979 361.432 315.844 360.3 316.698 359.147 317.562 357.985 318.417 356.811 319.281 355.628 320.135 354.434 321 353.22 321.854 352.006 322.718 350.771 323.583 349.526 324.437 348.27 325.301 347.004 326.155 345.728 327.02 344.442 327.874 343.145 328.738 341.828 329.592 340.511 330.457 339.183 331.321 337.835 332.175 336.487 333.04 335.118 333.894 333.75 334.758 332.361 335.612 330.971 336.477 329.561 337.331 328.152 338.195 326.721 339.06 325.291 339.914 323.85 340.778 322.399 341.633 320.938 342.497 319.466 343.351 317.984 344.215 316.503 345.07 315.01 345.934 313.508 346.798 311.995 347.653 310.472 348.517 308.949 349.371 307.416 350.236 305.872 351.09 304.329 351.954 302.775 352.808 301.21 353.673 299.646 354.537 298.072 355.391 296.497 356.256 294.912 357.11 293.317 357.974 291.722 358.828 290.127 359.693 288.522 360.547 286.917 361.411 285.301 362.276 283.696 363.13 282.07 363.994 280.454 364.848 278.828 365.713 277.202 366.567 275.576 367.431 273.94 368.286 272.314 369.15 270.678 370.014 269.052 370.869 267.416 371.733 265.779 372.587 264.143 373.452 262.507 374.306 260.881 375.17 259.245 376.024 257.619 376.889 255.993 377.753 254.367 378.607 252.741 379.472 251.115 380.326 249.499 381.19 247.884 382.044 246.278 382.909 244.673 383.763 243.068 384.627 241.473 385.492 239.878 386.346 238.293 387.21 236.718 388.064 235.144 388.929 233.569 389.783 232.015 390.647 230.461 391.502 228.918 392.366 227.385 393.23 225.862 394.085 224.338 394.949 222.836 395.803 221.334 396.667 219.841 397.522 218.37 398.386 216.898 399.24 215.447 400.105 213.996 400.969 212.566 401.823 211.146 402.688 209.736 403.542 208.347 404.406 206.968 405.26 205.599 406.125 204.241 406.979 202.903 407.843 201.586 408.708 200.279 409.562 198.982 410.426 197.706 411.28 196.451 412.145 195.205 412.999 193.981 413.863 192.766 414.717 191.573 415.582 190.4 416.446 189.247 417.3 188.105 418.165 186.993 419.019 185.892 419.883 184.812 420.738 183.752 421.602 182.712 422.456 181.694 423.321 180.695 424.185 179.718 425.039 178.761 425.904 177.824 426.758 176.919 427.622 176.023 428.476 175.159 429.341 174.315 430.195 173.492 431.059 172.689 431.924 171.907 432.778 171.156 433.642 170.425 434.496 169.725 435.361 169.046 436.215 168.388 437.079 167.75 437.933 167.142 438.798 166.566 439.662 166 440.516 165.475 441.381 164.961 442.235 164.487 443.099 164.024 443.954 163.602 444.818 163.191 445.672 162.82 446.536 162.46 447.401 162.141 448.255 161.843 449.119 161.565 449.974 161.318 450.838 161.102 451.692 160.906 452.557 160.742 453.411 160.608 454.275 160.495 455.14 160.402 455.994 160.351 456.858 160.32 457.712 160.309 458.577 160.34 459.431 160.381 460.295 160.464 461.149 160.567 462.014 160.69 462.878 160.855 463.732 161.03 464.597 161.246 465.451 161.483 466.315 161.75 467.169 162.038 468.034 162.357 468.888 162.697 469.752 163.067 470.617 163.458 471.471 163.88 472.335 164.333 473.19 164.806 474.054 165.3 474.908 165.825 475.773 166.371 476.627 166.947 477.491 167.544 478.355 168.172 479.21 168.82 480.074 169.489 480.928 170.189 481.793 170.909 482.647 171.66 483.511 172.422 484.365 173.214 485.23 174.037 486.094 174.871 486.948 175.735 487.813 176.62 488.667 177.526 489.531 178.452 490.385 179.399 491.25 180.366 492.104 181.354 492.968 182.373 493.833 183.402 494.687 184.452 495.551 185.532 496.406 186.623 497.27 187.734 498.124 188.866 498.988 190.019 499.843 191.182 500.707 192.365 501.571 193.569 502.426 194.794 503.29 196.029 504.144 197.284 505.009 198.56 505.863 199.846 506.727 201.143 507.581 202.46 508.446 203.798 509.31 205.146 510.164 206.505 511.029 207.884 511.883 209.273 512.747 210.672 513.601 212.092 514.466 213.523 515.32 214.964 516.184 216.415 517.049 217.876 517.903 219.347 518.767 220.84 519.621 222.332 520.486 223.834 521.34 225.347 522.204 226.87 523.059 228.403 523.923 229.947 524.787 231.501 525.642 233.055 526.506 234.619 527.36 236.183 528.224 237.768 529.079 239.353 529.943 240.937 530.797 242.533 531.662 244.138 532.526 245.743 533.38 247.349 534.245 248.964 535.099 250.58 535.963 252.196 536.817 253.822 537.682 255.447 538.536 257.073 539.4 258.699 540.265 260.336 541.119 261.972 541.983 263.598 542.837 265.234 543.702 266.87 544.556 268.506 545.42 270.132 546.275 271.769 547.139 273.405 548.003 275.031 548.857 276.657 549.722 278.283 550.576 279.909 551.44 281.534 552.295 283.15 553.159 284.766 554.013 286.381 554.878 287.987 555.742 289.592 556.596 291.198 557.461 292.793 558.315 294.377 559.179 295.962 560.033 297.547 560.898 299.121 561.752 300.686 562.616 302.25 563.481 303.804 564.335 305.358 565.199 306.901 566.053 308.435 566.918 309.968 567.772 311.491 568.636 313.004 569.49 314.506 570.355 316.009 571.219 317.49 572.073 318.972 572.938 320.444 573.792 321.915 574.656 323.366 575.511 324.817 576.375 326.248 577.229 327.678 578.094 329.088 578.958 330.498 579.812 331.897 580.677 333.287 581.531 334.666 582.395 336.034 583.249 337.382 584.114 338.731 584.968 340.068 585.832 341.396 586.697 342.703 587.551 344.01 588.415 345.306 589.269 346.582 590.134 347.848 590.988 349.114 591.852 350.359 592.706 351.594 593.571 352.819 594.435 354.033 595.289 355.227 596.154 356.42 597.008 357.593 597.872 358.756 598.727 359.909 599.591 361.051 600.445 362.183 601.309 363.305 602.174 364.406 603.028 365.507 603.892 366.588 604.747 367.658 605.611 368.708 606.465 369.757 607.33 370.786 608.184 371.815 609.048 372.824 609.913 373.822 610.767 374.81 611.631 375.777 612.485 376.745 613.35 377.691 614.204 378.628 615.068 379.554 615.922 380.47 616.787 381.375 617.651 382.26 618.505 383.145 619.37 384.01 620.224 384.864 621.088 385.708 621.942 386.541 622.807 387.365 623.661 388.167 624.525 388.97 625.39 389.752 626.244 390.534 627.108 391.296 627.963 392.047 628.827 392.788 629.681 393.519 630.545 394.239 631.4 394.949 632.264 395.649 633.128 396.338 633.983 397.017 634.847 397.676 635.701 398.335 636.566 398.983 637.42 399.621 638.284 400.249 639.138 400.856 640.003 401.463 640.867 402.06 641.721 402.646 642.586 403.223 643.44 403.789 644.304 404.344 645.158 404.89 646.023 405.435 646.877 405.96 647.741 406.475 648.606 406.989 649.46 407.493 650.324 407.987 651.179 408.471 652.043 408.944 652.897 409.407 653.761 409.871 654.616 410.313 655.48 410.756 656.344 411.188 657.199 411.62 658.063 412.032" stroke="#000000" stroke-width="0.771807" stroke-linecap="round" stroke-linejoin="round" stroke-miterlimit="10" stroke-opacity="1" fill="none" fill-rule="nonzero" transform="matrix(1.00137 0 0 1 -94.6619 20.0174)"/></g><g clip-path="url(#clip5)"><text fill="#000000" fill-opacity="1" font-family="Arial,Arial_MSFontService,sans-serif" font-style="normal" font-variant="normal" font-weight="400" font-stretch="normal" font-size="24" text-anchor="start" direction="ltr" writing-mode="lr-tb" unicode-bidi="normal" text-decoration="none" transform="matrix(1.03048 0 0 1.02908 367.201 165)">μ</text></g><g clip-path="url(#clip6)"><text fill="#000000" fill-opacity="1" font-family="Arial,Arial_MSFontService,sans-serif" font-style="normal" font-variant="normal" font-weight="400" font-stretch="normal" font-size="17" text-anchor="start" direction="ltr" writing-mode="lr-tb" unicode-bidi="normal" text-decoration="none" transform="matrix(1.03048 0 0 1.02908 381.452 170)">t</text></g><g clip-path="url(#clip7)"><path d="M400.105 441.597 400.105 121.513" stroke="#0000FF" stroke-width="0.771807" stroke-linecap="round" stroke-linejoin="round" stroke-miterlimit="10" stroke-opacity="1" fill="none" fill-rule="nonzero" transform="matrix(1.00137 0 0 1 -94.6619 20.0174)"/></g><g clip-path="url(#clip8)"><path d="M457.424 441.597 457.424 121.513" stroke="#006400" stroke-width="0.771807" stroke-linecap="round" stroke-linejoin="round" stroke-miterlimit="10" stroke-opacity="1" fill="none" fill-rule="nonzero" transform="matrix(1.00137 0 0 1 -94.6619 20.0174)"/></g><path d="M228.136 441.597 572.073 441.597" stroke="#000000" stroke-width="0.771807" stroke-linecap="round" stroke-linejoin="round" stroke-miterlimit="10" stroke-opacity="1" fill="none" fill-rule="nonzero" transform="matrix(1.00137 0 0 1 -94.6619 20.0174)"/><path d="M228.136 441.597 228.136 456.416" stroke="#000000" stroke-width="0.771807" stroke-linecap="round" stroke-linejoin="round" stroke-miterlimit="10" stroke-opacity="1" fill="none" fill-rule="nonzero" transform="matrix(1.00137 0 0 1 -94.6619 20.0174)"/><path d="M314.115 441.597 314.115 456.416" stroke="#000000" stroke-width="0.771807" stroke-linecap="round" stroke-linejoin="round" stroke-miterlimit="10" stroke-opacity="1" fill="none" fill-rule="nonzero" transform="matrix(1.00137 0 0 1 -94.6619 20.0174)"/><path d="M400.105 441.597 400.105 456.416" stroke="#000000" stroke-width="0.771807" stroke-linecap="round" stroke-linejoin="round" stroke-miterlimit="10" stroke-opacity="1" fill="none" fill-rule="nonzero" transform="matrix(1.00137 0 0 1 -94.6619 20.0174)"/><path d="M486.094 441.597 486.094 456.416" stroke="#000000" stroke-width="0.771807" stroke-linecap="round" stroke-linejoin="round" stroke-miterlimit="10" stroke-opacity="1" fill="none" fill-rule="nonzero" transform="matrix(1.00137 0 0 1 -94.6619 20.0174)"/><path d="M572.073 441.597 572.073 456.416" stroke="#000000" stroke-width="0.771807" stroke-linecap="round" stroke-linejoin="round" stroke-miterlimit="10" stroke-opacity="1" fill="none" fill-rule="nonzero" transform="matrix(1.00137 0 0 1 -94.6619 20.0174)"/><text fill="#000000" fill-opacity="1" font-family="Arial,Arial_MSFontService,sans-serif" font-style="normal" font-variant="normal" font-weight="400" font-stretch="normal" font-size="24" text-anchor="start" direction="ltr" writing-mode="lr-tb" unicode-bidi="normal" text-decoration="none" transform="matrix(1.03048 0 0 1.02908 120.029 515)">70<tspan fill="#000000" fill-opacity="1" font-family="Arial,Arial_MSFontService,sans-serif" font-style="normal" font-variant="normal" font-weight="400" font-stretch="normal" font-size="24" text-anchor="start" direction="ltr" writing-mode="lr-tb" unicode-bidi="normal" text-decoration="none" x="83.56" y="0">85</tspan><tspan fill="#000000" fill-opacity="1" font-family="Arial,Arial_MSFontService,sans-serif" font-style="normal" font-variant="normal" font-weight="400" font-stretch="normal" font-size="24" text-anchor="start" direction="ltr" writing-mode="lr-tb" unicode-bidi="normal" text-decoration="none" x="160.44" y="0">100</tspan><tspan fill="#000000" fill-opacity="1" font-family="Arial,Arial_MSFontService,sans-serif" font-style="normal" font-variant="normal" font-weight="400" font-stretch="normal" font-size="24" text-anchor="start" direction="ltr" writing-mode="lr-tb" unicode-bidi="normal" text-decoration="none" x="243.99" y="0">115</tspan><tspan fill="#000000" fill-opacity="1" font-family="Arial,Arial_MSFontService,sans-serif" font-style="normal" font-variant="normal" font-weight="400" font-stretch="normal" font-size="24" text-anchor="start" direction="ltr" writing-mode="lr-tb" unicode-bidi="normal" text-decoration="none" x="327.55" y="0">130</tspan></text></g></g></g></svg>