<svg id="Layer_1" data-name="Layer 1" xmlns="http://www.w3.org/2000/svg" viewBox="0 0 500 400"><defs><style>.cls-1{fill:#b9e88b;}.cls-2{fill:#f46757;}.cls-3{fill:#f9ee65;}.cls-4{fill:#f33851;}.cls-5{fill:#dcf66b;}</style></defs><rect class="cls-1" x="111.95" y="55.44" width="141.23" height="131.54"/><path d="M253.68,187.48H111.45V54.94H253.68Zm-141.23-1H252.68V55.94H112.45Z"/><rect class="cls-2" x="252.79" y="55.44" width="141.23" height="131.54"/><path d="M394.52,187.48H252.29V54.94H394.52Zm-141.23-1H393.52V55.94H253.29Z"/><rect class="cls-3" x="394.15" y="55.44" width="83.6" height="131.54"/><path d="M478.25,187.48h-84.6V54.94h84.6Zm-83.6-1h82.6V55.94h-82.6Z"/><rect class="cls-3" x="394.15" y="186.78" width="83.6" height="131.54"/><path d="M478.25,318.82h-84.6V186.28h84.6Zm-83.6-1h82.6V187.28h-82.6Z"/><rect class="cls-3" x="155.24" y="275.03" width="54.26" height="140.84" transform="translate(527.82 163.08) rotate(90)"/><path d="M253.29,373.08H111.45V317.82H253.29Zm-140.84-1H252.29V318.82H112.45Z"/><rect class="cls-3" x="296.27" y="275.03" width="54.26" height="140.84" transform="translate(668.85 22.05) rotate(90)"/><path d="M394.32,373.08H252.48V317.82H394.32Zm-140.84-1H393.32V318.82H253.48Z"/><rect class="cls-4" x="111.95" y="186.78" width="141.23" height="131.54"/><path d="M253.68,318.82H111.45V186.28H253.68Zm-141.23-1H252.68V187.28H112.45Z"/><rect class="cls-5" x="252.79" y="186.78" width="141.23" height="131.54"/><path d="M394.52,318.82H252.29V186.28H394.52Zm-141.23-1H393.52V187.28H253.29Z"/><path d="M178.89,39.51a2.45,2.45,0,0,0-.43-.36,4.76,4.76,0,0,0-.68-.35,5.16,5.16,0,0,0-.84-.27,4.08,4.08,0,0,0-.93-.1,2.56,2.56,0,0,0-1.56.39,1.25,1.25,0,0,0-.51,1.07,1.09,1.09,0,0,0,.29.8,2.1,2.1,0,0,0,.87.49q.59.2,1.47.42a11.14,11.14,0,0,1,1.87.6,3,3,0,0,1,1.22.94,2.56,2.56,0,0,1,.42,1.54,3,3,0,0,1-.3,1.39,2.56,2.56,0,0,1-.84,1,3.81,3.81,0,0,1-1.25.53,6.07,6.07,0,0,1-1.51.18,7.81,7.81,0,0,1-1.59-.17,7.12,7.12,0,0,1-1.5-.49,6.39,6.39,0,0,1-1.31-.78l.77-1.44a2.89,2.89,0,0,0,.56.42,5.59,5.59,0,0,0,.85.45,7.46,7.46,0,0,0,1.07.35,5.15,5.15,0,0,0,1.18.14,2.79,2.79,0,0,0,1.53-.35,1.13,1.13,0,0,0,.54-1,1.15,1.15,0,0,0-.35-.86,2.82,2.82,0,0,0-1-.54c-.44-.15-1-.3-1.58-.45a10.88,10.88,0,0,1-1.75-.62,2.52,2.52,0,0,1-1.06-.87,2.34,2.34,0,0,1-.35-1.35,3,3,0,0,1,.51-1.78,3.19,3.19,0,0,1,1.38-1.09,5.21,5.21,0,0,1,2-.36,6,6,0,0,1,1.36.15,6.66,6.66,0,0,1,1.21.43,6.54,6.54,0,0,1,1,.62Z"/><path d="M181.55,38.52V36.7h1.65v1.82Zm0,9.13V39.81h1.65v7.84Z"/><path d="M188.73,47.8a4.24,4.24,0,0,1-1.66-.32,4,4,0,0,1-2.4-3.72,4.05,4.05,0,0,1,.5-2,3.77,3.77,0,0,1,1.41-1.45,4,4,0,0,1,2.15-.55,3.94,3.94,0,0,1,2.09.53,3.22,3.22,0,0,1,1.32,1.42l-1.61.51a2,2,0,0,0-.76-.78,2.15,2.15,0,0,0-1.07-.27,2.2,2.2,0,0,0-1.19.33,2.27,2.27,0,0,0-.84.92,2.8,2.8,0,0,0-.31,1.35,2.85,2.85,0,0,0,.32,1.34,2.47,2.47,0,0,0,.84.94,2.11,2.11,0,0,0,1.2.35,2.29,2.29,0,0,0,.78-.14,2.32,2.32,0,0,0,.67-.39,1.5,1.5,0,0,0,.41-.55l1.62.48a3.07,3.07,0,0,1-.76,1,3.92,3.92,0,0,1-1.19.71A4.29,4.29,0,0,1,188.73,47.8Z"/><path d="M199,47.65l-2.52-3.59-1.29,1.22v2.37h-1.65V36.7h1.65v6.92l3.63-3.75h1.77l-3,3.26,3.21,4.52Z"/><path d="M48.38,129.52V118.87h4.47a2.91,2.91,0,0,1,1.32.3,3.72,3.72,0,0,1,1,.79,3.61,3.61,0,0,1,.69,1.12,3.43,3.43,0,0,1,.24,1.25,3.79,3.79,0,0,1-.4,1.69,3.31,3.31,0,0,1-1.13,1.3,2.89,2.89,0,0,1-1.68.49H50.06v3.71Zm1.68-5.19h2.77a1.42,1.42,0,0,0,.84-.26,1.76,1.76,0,0,0,.56-.72,2.32,2.32,0,0,0,.21-1,2.15,2.15,0,0,0-.24-1,1.86,1.86,0,0,0-.63-.7,1.53,1.53,0,0,0-.83-.25H50.06Z"/><path d="M60.89,129.67a4.21,4.21,0,0,1-1.67-.32,3.91,3.91,0,0,1-1.27-.88,4.2,4.2,0,0,1-.81-4.37,3.92,3.92,0,0,1,.81-1.29,4,4,0,0,1,1.28-.88,4.2,4.2,0,0,1,1.66-.31,4.15,4.15,0,0,1,1.65.31,4,4,0,0,1,1.28.88,3.94,3.94,0,0,1,.82,1.29,4.14,4.14,0,0,1-.82,4.37,3.85,3.85,0,0,1-1.28.88A4.15,4.15,0,0,1,60.89,129.67Zm-2.34-4a2.8,2.8,0,0,0,.31,1.33,2.52,2.52,0,0,0,.84.93,2.12,2.12,0,0,0,1.19.34,2.09,2.09,0,0,0,1.17-.35,2.42,2.42,0,0,0,.85-.94,2.92,2.92,0,0,0,0-2.66,2.49,2.49,0,0,0-.85-.94,2.09,2.09,0,0,0-1.17-.35,2.06,2.06,0,0,0-1.19.36,2.63,2.63,0,0,0-.84.94A2.76,2.76,0,0,0,58.55,125.66Z"/><path d="M69.18,129.67a5.52,5.52,0,0,1-1.87-.32,4.09,4.09,0,0,1-1.52-1l.62-1.11a4.67,4.67,0,0,0,1.35.87,3.7,3.7,0,0,0,1.36.27,2.22,2.22,0,0,0,1.13-.26.81.81,0,0,0,.43-.75.66.66,0,0,0-.22-.55,2,2,0,0,0-.66-.32l-1-.29a10.35,10.35,0,0,1-1.41-.53,2.15,2.15,0,0,1-.86-.68,1.71,1.71,0,0,1-.28-1,2.15,2.15,0,0,1,.39-1.3,2.49,2.49,0,0,1,1.08-.81,4.3,4.3,0,0,1,1.62-.28,4.52,4.52,0,0,1,1.58.26,3.53,3.53,0,0,1,1.28.81l-.7,1.1a3.79,3.79,0,0,0-1.08-.71,3.2,3.2,0,0,0-1.17-.22,3.1,3.1,0,0,0-.69.08,1.14,1.14,0,0,0-.55.3.78.78,0,0,0-.22.6.68.68,0,0,0,.18.5,1.39,1.39,0,0,0,.54.33l.89.3c.61.18,1.13.35,1.56.52a2.57,2.57,0,0,1,1,.67,1.64,1.64,0,0,1,.36,1.12,2.09,2.09,0,0,1-.85,1.76A3.71,3.71,0,0,1,69.18,129.67Z"/><path d="M73.76,120.39v-1.82h1.65v1.82Zm0,9.13v-7.85h1.65v7.85Z"/><path d="M81.75,129.15c-.14.07-.31.14-.52.22a5.2,5.2,0,0,1-.72.21,3.62,3.62,0,0,1-.82.09,2.42,2.42,0,0,1-.94-.18,1.56,1.56,0,0,1-.7-.57,1.89,1.89,0,0,1-.26-1V123h-1v-1.28h1v-2.58h1.65v2.58h1.71V123H79.44v4.35a.84.84,0,0,0,.26.6.88.88,0,0,0,.58.19,1.83,1.83,0,0,0,.66-.11,4,4,0,0,0,.46-.2Z"/><path d="M82.89,120.39v-1.82h1.65v1.82Zm0,9.13v-7.85h1.65v7.85Z"/><path d="M88.71,129.52l-3-7.79h1.71L89.67,128l2.23-6.27h1.59l-3,7.79Z"/><path d="M98,129.67a4.15,4.15,0,0,1-1.65-.32,3.89,3.89,0,0,1-1.29-.88,4,4,0,0,1-.83-1.28,4.14,4.14,0,0,1-.29-1.54,4.06,4.06,0,0,1,.51-2,3.93,3.93,0,0,1,1.42-1.47,4.07,4.07,0,0,1,2.15-.55,3.92,3.92,0,0,1,2.12.55,3.85,3.85,0,0,1,1.39,1.47,4,4,0,0,1,.49,1.94c0,.12,0,.23,0,.34s0,.19,0,.25H95.65a2.38,2.38,0,0,0,.39,1.2,2.44,2.44,0,0,0,.86.8,2.31,2.31,0,0,0,1.12.29,2.49,2.49,0,0,0,1.26-.34,1.65,1.65,0,0,0,.8-.87l1.41.41a3.13,3.13,0,0,1-.77,1,4.15,4.15,0,0,1-1.23.72A4.47,4.47,0,0,1,98,129.67Zm-2.35-4.59h4.74a2.36,2.36,0,0,0-1.24-2,2.39,2.39,0,0,0-2.28,0,2.38,2.38,0,0,0-.85.79A2.41,2.41,0,0,0,95.61,125.08Z"/><path d="M145,107.65h-3.54v9.16h-1.7v-9.16h-3.55v-1.49H145Z"/><path d="M149.64,110.39a3.49,3.49,0,0,0-1.7.44,2.34,2.34,0,0,0-1.06,1.18v4.8h-1.65V109h1.53v1.69a3.62,3.62,0,0,1,1.07-1.3,2.61,2.61,0,0,1,1.39-.53h.25l.17,0Z"/><path d="M150.77,113.79V109h1.65v4.42a2.62,2.62,0,0,0,.38,1.57,1.27,1.27,0,0,0,1.12.53,2.17,2.17,0,0,0,.9-.19,2.49,2.49,0,0,0,.81-.57,2.88,2.88,0,0,0,.6-.91V109h1.65V115a.62.62,0,0,0,.1.4.49.49,0,0,0,.35.13v1.32l-.42.06-.32,0a1.17,1.17,0,0,1-.75-.25.9.9,0,0,1-.34-.63l0-.78a3.46,3.46,0,0,1-1.37,1.29,3.93,3.93,0,0,1-1.84.44,2.23,2.23,0,0,1-1.86-.8A3.8,3.8,0,0,1,150.77,113.79Z"/><path d="M163.53,117a4.24,4.24,0,0,1-1.66-.32,4,4,0,0,1-1.28-.88,3.87,3.87,0,0,1-.83-1.28,4,4,0,0,1-.29-1.54,4.06,4.06,0,0,1,.51-2,3.93,3.93,0,0,1,1.42-1.47,4.07,4.07,0,0,1,2.15-.55,3.92,3.92,0,0,1,4,4c0,.12,0,.23,0,.34s0,.19,0,.26h-6.29a2.46,2.46,0,0,0,.38,1.19,2.56,2.56,0,0,0,.87.8,2.31,2.31,0,0,0,1.12.29,2.51,2.51,0,0,0,1.25-.33,1.7,1.7,0,0,0,.81-.87l1.41.4a3,3,0,0,1-.78,1,4,4,0,0,1-1.22.72A4.47,4.47,0,0,1,163.53,117Zm-2.35-4.59h4.74a2.33,2.33,0,0,0-.39-1.17,2.36,2.36,0,0,0-2-1.08,2.36,2.36,0,0,0-2,1.08A2.41,2.41,0,0,0,161.18,112.37Z"/><path d="M177.06,117a3.06,3.06,0,0,1-1.66-.45,3.3,3.3,0,0,1-1.14-1.15V120h-1.65V109h1.45v1.41a3.39,3.39,0,0,1,1.17-1.12,3.14,3.14,0,0,1,1.61-.41,3.31,3.31,0,0,1,1.48.32,3.47,3.47,0,0,1,1.17.88,4.3,4.3,0,0,1,1,2.81,4.68,4.68,0,0,1-.44,2,3.71,3.71,0,0,1-1.23,1.47A3.14,3.14,0,0,1,177.06,117Zm-.54-1.41a2,2,0,0,0,.95-.22,2.51,2.51,0,0,0,.74-.59,2.81,2.81,0,0,0,.47-.85,2.91,2.91,0,0,0,.17-1,2.83,2.83,0,0,0-.18-1,2.65,2.65,0,0,0-.52-.83,2.86,2.86,0,0,0-.78-.56,2.25,2.25,0,0,0-1-.2,2,2,0,0,0-.66.11,2.59,2.59,0,0,0-.64.33,2.71,2.71,0,0,0-.53.48,1.77,1.77,0,0,0-.31.59v2a3.18,3.18,0,0,0,.55.85,2.76,2.76,0,0,0,.8.6A2,2,0,0,0,176.52,115.55Z"/><path d="M185.55,117a4.16,4.16,0,0,1-1.66-.32,3.81,3.81,0,0,1-1.27-.88,4,4,0,0,1-.82-1.29,4.37,4.37,0,0,1,0-3.08,3.82,3.82,0,0,1,2.09-2.16,4.47,4.47,0,0,1,3.32,0,3.82,3.82,0,0,1,2.09,2.16,4.23,4.23,0,0,1,0,3.08,4,4,0,0,1-.82,1.29,3.81,3.81,0,0,1-1.27.88A4.24,4.24,0,0,1,185.55,117Zm-2.34-4a2.81,2.81,0,0,0,.32,1.33,2.52,2.52,0,0,0,.84.93,2.09,2.09,0,0,0,1.18.34,2.15,2.15,0,0,0,1.18-.35,2.5,2.5,0,0,0,.85-.94,3,3,0,0,0,0-2.66,2.66,2.66,0,0,0-.85-.94,2.14,2.14,0,0,0-1.18-.34,2,2,0,0,0-1.18.35,2.63,2.63,0,0,0-.84.94A2.79,2.79,0,0,0,183.21,113Z"/><path d="M193.85,117a5.58,5.58,0,0,1-1.88-.32,4,4,0,0,1-1.51-1l.61-1.11a4.58,4.58,0,0,0,1.36.87,3.66,3.66,0,0,0,1.36.27,2.09,2.09,0,0,0,1.12-.26.82.82,0,0,0,.44-.75.66.66,0,0,0-.23-.55,2.07,2.07,0,0,0-.65-.32l-1-.29A10.35,10.35,0,0,1,192,113a2.12,2.12,0,0,1-.85-.68,1.71,1.71,0,0,1-.29-1,2.1,2.1,0,0,1,.39-1.29,2.41,2.41,0,0,1,1.09-.82,4.21,4.21,0,0,1,1.61-.28,4.48,4.48,0,0,1,1.58.26,3.38,3.38,0,0,1,1.29.82l-.71,1.09a3.71,3.71,0,0,0-1.07-.7,3.09,3.09,0,0,0-1.87-.15,1.28,1.28,0,0,0-.55.3.81.81,0,0,0-.21.6.68.68,0,0,0,.18.5,1.39,1.39,0,0,0,.54.33l.88.3c.61.18,1.13.35,1.56.52a2.7,2.7,0,0,1,1,.67,1.69,1.69,0,0,1,.35,1.12,2.06,2.06,0,0,1-.85,1.76A3.66,3.66,0,0,1,193.85,117Z"/><path d="M198.42,107.68v-1.82h1.65v1.82Zm0,9.13V109h1.65v7.84Z"/><path d="M206.42,116.44l-.53.22a5.47,5.47,0,0,1-.71.21,3.75,3.75,0,0,1-.82.09,2.42,2.42,0,0,1-.94-.18,1.46,1.46,0,0,1-.7-.57,1.81,1.81,0,0,1-.26-1V110.3h-1V109h1v-2.58h1.64V109h1.71v1.27H204.1v4.36a.8.8,0,0,0,.27.59.84.84,0,0,0,.57.2,1.8,1.8,0,0,0,.66-.12l.47-.2Z"/><path d="M207.56,107.68v-1.82h1.65v1.82Zm0,9.13V109h1.65v7.84Z"/><path d="M213.38,116.81l-3-7.78h1.71l2.23,6.26,2.24-6.26h1.59l-3,7.78Z"/><path d="M222.63,117a4.24,4.24,0,0,1-1.66-.32,4,4,0,0,1-1.28-.88,3.87,3.87,0,0,1-.83-1.28,4,4,0,0,1-.3-1.54,4.06,4.06,0,0,1,.51-2,4,4,0,0,1,1.43-1.47,4,4,0,0,1,2.14-.55,4,4,0,0,1,2.13.55,3.9,3.9,0,0,1,1.38,1.47,4,4,0,0,1,.5,1.94c0,.12,0,.23,0,.34s0,.19,0,.26h-6.28a2.46,2.46,0,0,0,.38,1.19,2.53,2.53,0,0,0,.86.8,2.35,2.35,0,0,0,1.13.29,2.51,2.51,0,0,0,1.25-.33,1.68,1.68,0,0,0,.8-.87l1.41.4a3,3,0,0,1-.77,1,4,4,0,0,1-1.22.72A4.47,4.47,0,0,1,222.63,117Zm-2.36-4.59H225a2.32,2.32,0,0,0-.38-1.17,2.36,2.36,0,0,0-2-1.08,2.36,2.36,0,0,0-2,1.08A2.42,2.42,0,0,0,220.27,112.37Z"/><path d="M164.88,137.35a9.72,9.72,0,0,1,.8-3.81,36.43,36.43,0,0,1,1.94-3.84l1.61.68a13,13,0,0,0-.74,1.29,16.4,16.4,0,0,0-.79,1.77,15.78,15.78,0,0,0-.62,2,8.14,8.14,0,0,0-.25,2,8.87,8.87,0,0,0,.64,3.18,20.67,20.67,0,0,0,1.71,3.43l-1.52.78a26.15,26.15,0,0,1-1.43-2.43,13.36,13.36,0,0,1-1-2.51A9.17,9.17,0,0,1,164.88,137.35Z"/><path d="M181.21,132.33h-4.47v11.58H174.6V132.33h-4.49v-1.87h11.1Z"/><path d="M183,143.91V130.46h5.64a3.6,3.6,0,0,1,1.67.38,4.48,4.48,0,0,1,1.33,1,5,5,0,0,1,.87,1.4,4.4,4.4,0,0,1,.3,1.59,4.84,4.84,0,0,1-.5,2.14,4.23,4.23,0,0,1-1.42,1.63,3.71,3.71,0,0,1-2.13.63h-3.64v4.68Zm2.12-6.56h3.5a1.74,1.74,0,0,0,1.06-.33,2.13,2.13,0,0,0,.71-.9,3.13,3.13,0,0,0,.26-1.29,2.74,2.74,0,0,0-.3-1.3,2.34,2.34,0,0,0-.79-.88,1.88,1.88,0,0,0-1-.32h-3.39Z"/><path d="M198.1,137.35a9.55,9.55,0,0,1-.35,2.51,14.07,14.07,0,0,1-1,2.51,24,24,0,0,1-1.42,2.43L193.8,144a21.56,21.56,0,0,0,1.72-3.43,8.89,8.89,0,0,0,.65-3.18,8.63,8.63,0,0,0-.24-2,15.88,15.88,0,0,0-.64-2c-.26-.65-.52-1.24-.79-1.77s-.52-1-.73-1.29l1.59-.68a31.58,31.58,0,0,1,1.95,3.84A9.71,9.71,0,0,1,198.1,137.35Z"/><path d="M278.5,116.81V106.16h7.09v1.49h-5.41v3.18h4.53v1.39h-4.53v4.59Z"/><path d="M285.64,114.54a2.09,2.09,0,0,1,.42-1.3,2.77,2.77,0,0,1,1.18-.86,4.47,4.47,0,0,1,1.74-.31,7.82,7.82,0,0,1,1.07.08,4.17,4.17,0,0,1,1,.24v-.5a1.65,1.65,0,0,0-.49-1.27,2.06,2.06,0,0,0-1.43-.45,3.22,3.22,0,0,0-1.24.23,7.17,7.17,0,0,0-1.25.65l-.55-1.11a6.32,6.32,0,0,1,1.56-.78,5.38,5.38,0,0,1,1.66-.25,3.54,3.54,0,0,1,2.48.82,3,3,0,0,1,.91,2.33V115a.69.69,0,0,0,.1.4.45.45,0,0,0,.34.13v1.32l-.41.06-.3,0a1.11,1.11,0,0,1-.79-.26,1,1,0,0,1-.32-.6l0-.45a3.4,3.4,0,0,1-1.31,1,3.84,3.84,0,0,1-1.6.36,3,3,0,0,1-1.4-.32,2.38,2.38,0,0,1-1-.87A2.28,2.28,0,0,1,285.64,114.54Zm5,.47a2,2,0,0,0,.29-.39.68.68,0,0,0,.1-.33v-.89a4.23,4.23,0,0,0-.88-.24,4.84,4.84,0,0,0-.92-.08,2.65,2.65,0,0,0-1.46.35,1.09,1.09,0,0,0-.56,1,1.25,1.25,0,0,0,.18.65,1.37,1.37,0,0,0,.54.5,1.82,1.82,0,0,0,.88.2,2.65,2.65,0,0,0,1-.21A2.33,2.33,0,0,0,290.63,115Z"/><path d="M294.68,105.86h1.65v8.71a1.11,1.11,0,0,0,.18.77.64.64,0,0,0,.45.17,2.62,2.62,0,0,0,.57-.06,2.37,2.37,0,0,0,.45-.15l.24,1.3a4.78,4.78,0,0,1-.85.26,4.32,4.32,0,0,1-.89.1,1.82,1.82,0,0,1-1.32-.47,1.78,1.78,0,0,1-.48-1.32Z"/><path d="M302,117a5.52,5.52,0,0,1-1.87-.32,4.09,4.09,0,0,1-1.52-1l.62-1.11a4.67,4.67,0,0,0,1.35.87,3.7,3.7,0,0,0,1.36.27,2.13,2.13,0,0,0,1.13-.26.81.81,0,0,0,.43-.75.66.66,0,0,0-.22-.55,2,2,0,0,0-.66-.32l-1-.29a10.35,10.35,0,0,1-1.41-.53,2.15,2.15,0,0,1-.86-.68,1.71,1.71,0,0,1-.28-1,2.1,2.1,0,0,1,.39-1.29,2.41,2.41,0,0,1,1.09-.82,4.21,4.21,0,0,1,1.61-.28,4.48,4.48,0,0,1,1.58.26A3.42,3.42,0,0,1,305,110l-.7,1.09a3.71,3.71,0,0,0-1.07-.7,3.09,3.09,0,0,0-1.87-.15,1.22,1.22,0,0,0-.55.3.78.78,0,0,0-.22.6.68.68,0,0,0,.18.5,1.39,1.39,0,0,0,.54.33l.89.3c.61.18,1.13.35,1.56.52a2.57,2.57,0,0,1,1,.67,1.64,1.64,0,0,1,.36,1.12,2.09,2.09,0,0,1-.85,1.76A3.69,3.69,0,0,1,302,117Z"/><path d="M310.1,117a4.15,4.15,0,0,1-1.65-.32,3.92,3.92,0,0,1-2.12-2.16,4,4,0,0,1-.29-1.54,4.06,4.06,0,0,1,.51-2,3.93,3.93,0,0,1,1.42-1.47,4.07,4.07,0,0,1,2.15-.55,3.92,3.92,0,0,1,4,4c0,.12,0,.23,0,.34s0,.19,0,.26h-6.29a2.46,2.46,0,0,0,.38,1.19,2.56,2.56,0,0,0,.87.8,2.31,2.31,0,0,0,1.12.29,2.51,2.51,0,0,0,1.25-.33,1.7,1.7,0,0,0,.81-.87l1.41.4a3,3,0,0,1-.78,1,4,4,0,0,1-1.22.72A4.47,4.47,0,0,1,310.1,117Zm-2.35-4.59h4.74a2.33,2.33,0,0,0-.39-1.17,2.36,2.36,0,0,0-2-1.08,2.36,2.36,0,0,0-2,1.08A2.41,2.41,0,0,0,307.75,112.37Z"/><path d="M323.63,117a3.06,3.06,0,0,1-1.66-.45,3.3,3.3,0,0,1-1.14-1.15V120h-1.65V109h1.45v1.41a3.39,3.39,0,0,1,1.17-1.12,3.14,3.14,0,0,1,1.61-.41,3.31,3.31,0,0,1,1.48.32,3.47,3.47,0,0,1,1.17.88,4.3,4.3,0,0,1,1.05,2.81,4.68,4.68,0,0,1-.44,2,3.63,3.63,0,0,1-1.23,1.47A3.14,3.14,0,0,1,323.63,117Zm-.54-1.41a2,2,0,0,0,1-.22,2.51,2.51,0,0,0,.74-.59,2.81,2.81,0,0,0,.47-.85,2.91,2.91,0,0,0,.17-1,2.83,2.83,0,0,0-.18-1,2.65,2.65,0,0,0-.52-.83,2.86,2.86,0,0,0-.78-.56,2.25,2.25,0,0,0-1-.2,2,2,0,0,0-.66.11,2.59,2.59,0,0,0-.64.33,2.71,2.71,0,0,0-.53.48,1.77,1.77,0,0,0-.31.59v2a3.18,3.18,0,0,0,.55.85,2.76,2.76,0,0,0,.8.6A2,2,0,0,0,323.09,115.55Z"/><path d="M332.12,117a4.16,4.16,0,0,1-1.66-.32,3.81,3.81,0,0,1-1.27-.88,4,4,0,0,1-.82-1.29,4.37,4.37,0,0,1,0-3.08,3.82,3.82,0,0,1,2.09-2.16,4.47,4.47,0,0,1,3.32,0,3.82,3.82,0,0,1,2.09,2.16,4.23,4.23,0,0,1,0,3.08,4,4,0,0,1-.82,1.29,3.81,3.81,0,0,1-1.27.88A4.2,4.2,0,0,1,332.12,117Zm-2.34-4a2.81,2.81,0,0,0,.32,1.33,2.52,2.52,0,0,0,.84.93,2.09,2.09,0,0,0,1.18.34,2.15,2.15,0,0,0,1.18-.35,2.5,2.5,0,0,0,.85-.94,3,3,0,0,0,0-2.66,2.66,2.66,0,0,0-.85-.94,2.14,2.14,0,0,0-1.18-.34,2,2,0,0,0-1.18.35,2.63,2.63,0,0,0-.84.94A2.79,2.79,0,0,0,329.78,113Z"/><path d="M340.42,117a5.58,5.58,0,0,1-1.88-.32,4,4,0,0,1-1.51-1l.61-1.11a4.58,4.58,0,0,0,1.36.87,3.66,3.66,0,0,0,1.36.27,2.09,2.09,0,0,0,1.12-.26.82.82,0,0,0,.44-.75.66.66,0,0,0-.23-.55,2.07,2.07,0,0,0-.65-.32l-1-.29a10.35,10.35,0,0,1-1.41-.53,2.12,2.12,0,0,1-.85-.68,1.71,1.71,0,0,1-.29-1,2.1,2.1,0,0,1,.39-1.29,2.41,2.41,0,0,1,1.09-.82,4.21,4.21,0,0,1,1.61-.28,4.48,4.48,0,0,1,1.58.26,3.38,3.38,0,0,1,1.29.82l-.71,1.09a3.71,3.71,0,0,0-1.07-.7,3.09,3.09,0,0,0-1.87-.15,1.28,1.28,0,0,0-.55.3.81.81,0,0,0-.21.6.68.68,0,0,0,.18.5,1.39,1.39,0,0,0,.54.33l.88.3c.61.18,1.13.35,1.56.52a2.7,2.7,0,0,1,1,.67,1.69,1.69,0,0,1,.35,1.12,2.06,2.06,0,0,1-.85,1.76A3.66,3.66,0,0,1,340.42,117Z"/><path d="M345,107.68v-1.82h1.65v1.82Zm0,9.13V109h1.65v7.84Z"/><path d="M353,116.44c-.14.07-.32.14-.53.22a5.47,5.47,0,0,1-.71.21,3.75,3.75,0,0,1-.82.09,2.42,2.42,0,0,1-.94-.18,1.51,1.51,0,0,1-.7-.57,1.81,1.81,0,0,1-.26-1V110.3h-1V109h1v-2.58h1.65V109h1.71v1.27h-1.71v4.36a.8.8,0,0,0,.26.59.87.87,0,0,0,.58.2,1.84,1.84,0,0,0,.66-.12,5,5,0,0,0,.46-.2Z"/><path d="M354.13,107.68v-1.82h1.65v1.82Zm0,9.13V109h1.65v7.84Z"/><path d="M360,116.81,357,109h1.71l2.24,6.26,2.23-6.26h1.59l-3,7.78Z"/><path d="M369.2,117a4.24,4.24,0,0,1-1.66-.32,4,4,0,0,1-1.28-.88,3.87,3.87,0,0,1-.83-1.28,4,4,0,0,1-.29-1.54,4.06,4.06,0,0,1,.51-2,3.93,3.93,0,0,1,1.42-1.47,4.07,4.07,0,0,1,2.15-.55,3.92,3.92,0,0,1,4,4c0,.12,0,.23,0,.34s0,.19,0,.26h-6.29a2.46,2.46,0,0,0,.38,1.19,2.56,2.56,0,0,0,.87.8,2.31,2.31,0,0,0,1.12.29,2.51,2.51,0,0,0,1.25-.33,1.7,1.7,0,0,0,.81-.87l1.41.4a3,3,0,0,1-.78,1,4,4,0,0,1-1.22.72A4.47,4.47,0,0,1,369.2,117Zm-2.35-4.59h4.74a2.33,2.33,0,0,0-.39-1.17,2.36,2.36,0,0,0-2-1.08,2.36,2.36,0,0,0-2,1.08A2.41,2.41,0,0,0,366.85,112.37Z"/><path d="M306.18,137.35a9.56,9.56,0,0,1,.81-3.81,34.61,34.61,0,0,1,1.94-3.84l1.61.68a11.16,11.16,0,0,0-.75,1.29,18.68,18.68,0,0,0-.78,1.77,15.83,15.83,0,0,0-.63,2,8.66,8.66,0,0,0-.25,2,8.89,8.89,0,0,0,.65,3.18,21.39,21.39,0,0,0,1.7,3.43l-1.51.78a24.11,24.11,0,0,1-1.43-2.43,13.4,13.4,0,0,1-1-2.51A9.17,9.17,0,0,1,306.18,137.35Z"/><path d="M312.59,143.91V130.46h9v1.87h-6.84v4h5.72v1.76h-5.72v5.8Z"/><path d="M323.56,143.91V130.46h5.64a3.6,3.6,0,0,1,1.67.38,4.31,4.31,0,0,1,1.32,1,4.79,4.79,0,0,1,.88,1.4,4.4,4.4,0,0,1,.3,1.59,4.84,4.84,0,0,1-.5,2.14,4.23,4.23,0,0,1-1.42,1.63,3.72,3.72,0,0,1-2.14.63h-3.63v4.68Zm2.12-6.56h3.5a1.74,1.74,0,0,0,1.06-.33,2.13,2.13,0,0,0,.71-.9,3.13,3.13,0,0,0,.26-1.29,2.74,2.74,0,0,0-.3-1.3,2.34,2.34,0,0,0-.79-.88,1.88,1.88,0,0,0-1.05-.32h-3.39Z"/><path d="M338.65,137.35a9.17,9.17,0,0,1-.36,2.51,13.31,13.31,0,0,1-1,2.51,24,24,0,0,1-1.42,2.43l-1.54-.78a21.56,21.56,0,0,0,1.72-3.43,8.89,8.89,0,0,0,.65-3.18,8.63,8.63,0,0,0-.24-2,15.88,15.88,0,0,0-.64-2,18.58,18.58,0,0,0-.8-1.77q-.41-.79-.72-1.29l1.59-.68a31.58,31.58,0,0,1,1.95,3.84A9.71,9.71,0,0,1,338.65,137.35Z"/><path d="M296.35,353.32a2.45,2.45,0,0,0-.43-.36,4.76,4.76,0,0,0-.68-.35,5.16,5.16,0,0,0-.84-.27,4.08,4.08,0,0,0-.93-.1,2.56,2.56,0,0,0-1.56.39,1.25,1.25,0,0,0-.51,1.07,1.09,1.09,0,0,0,.29.8,2.1,2.1,0,0,0,.87.49q.58.19,1.47.42a11.14,11.14,0,0,1,1.87.6,3,3,0,0,1,1.22.94,2.56,2.56,0,0,1,.42,1.54,3,3,0,0,1-.3,1.39,2.56,2.56,0,0,1-.84.95,4,4,0,0,1-1.25.54,6.59,6.59,0,0,1-1.51.17,7.64,7.64,0,0,1-1.58-.17,6.76,6.76,0,0,1-1.5-.49,6.2,6.2,0,0,1-1.32-.78l.77-1.44a3.24,3.24,0,0,0,.56.42,5.73,5.73,0,0,0,.86.45,7.32,7.32,0,0,0,1.06.35,5.21,5.21,0,0,0,1.18.14,2.77,2.77,0,0,0,1.54-.35,1.14,1.14,0,0,0,.53-1,1.15,1.15,0,0,0-.35-.87,2.82,2.82,0,0,0-1-.54c-.44-.15-1-.3-1.58-.45a10.88,10.88,0,0,1-1.75-.62,2.58,2.58,0,0,1-1.06-.87,2.42,2.42,0,0,1-.35-1.35,3,3,0,0,1,.51-1.77,3.11,3.11,0,0,1,1.39-1.1,5.12,5.12,0,0,1,2-.36,6,6,0,0,1,1.36.15,6.4,6.4,0,0,1,1.21.43,6.12,6.12,0,0,1,1,.62Z"/><path d="M303.43,361.61a3.14,3.14,0,0,1-1.66-.44,3.42,3.42,0,0,1-1.14-1.16v4.65H299v-11h1.45v1.41A3.39,3.39,0,0,1,301.6,354a3.24,3.24,0,0,1,1.61-.41,3.31,3.31,0,0,1,1.48.32,3.47,3.47,0,0,1,1.17.88,4.45,4.45,0,0,1,.78,1.29,4.27,4.27,0,0,1,.27,1.52,4.62,4.62,0,0,1-.44,2,3.59,3.59,0,0,1-1.23,1.46A3.12,3.12,0,0,1,303.43,361.61Zm-.54-1.41a2.05,2.05,0,0,0,1-.22,2.46,2.46,0,0,0,.73-.59,2.61,2.61,0,0,0,.47-.85,2.91,2.91,0,0,0,.17-1,2.83,2.83,0,0,0-.18-1,2.34,2.34,0,0,0-.52-.82,2.46,2.46,0,0,0-.78-.57,2.37,2.37,0,0,0-1-.2,2.28,2.28,0,0,0-.66.11,2.59,2.59,0,0,0-.64.33,2.47,2.47,0,0,0-.53.49,1.64,1.64,0,0,0-.31.58v2a3.18,3.18,0,0,0,.55.85,2.76,2.76,0,0,0,.8.6A1.89,1.89,0,0,0,302.89,360.2Z"/><path d="M312,361.61a4.15,4.15,0,0,1-1.65-.32,3.75,3.75,0,0,1-1.29-.88,4,4,0,0,1-.83-1.28,4.14,4.14,0,0,1-.29-1.54,4.06,4.06,0,0,1,.51-2,3.93,3.93,0,0,1,1.42-1.47,4.07,4.07,0,0,1,2.15-.55,3.81,3.81,0,0,1,3.51,2,4,4,0,0,1,.49,1.94c0,.12,0,.23,0,.34s0,.19,0,.26h-6.29a2.43,2.43,0,0,0,1.25,2,2.31,2.31,0,0,0,1.12.29,2.58,2.58,0,0,0,1.26-.33,1.72,1.72,0,0,0,.8-.87l1.41.4a3.13,3.13,0,0,1-.77,1,4.15,4.15,0,0,1-1.23.72A4.47,4.47,0,0,1,312,361.61ZM309.6,357h4.74a2.36,2.36,0,0,0-1.24-2,2.39,2.39,0,0,0-2.28,0,2.38,2.38,0,0,0-.85.79A2.41,2.41,0,0,0,309.6,357Z"/><path d="M320.88,361.61a4.24,4.24,0,0,1-1.66-.32,4,4,0,0,1-1.28-.88,4,4,0,0,1-.83-1.29,4.19,4.19,0,0,1,.21-3.56,3.77,3.77,0,0,1,1.41-1.45,4,4,0,0,1,2.15-.55,3.94,3.94,0,0,1,2.09.53,3.2,3.2,0,0,1,1.31,1.42l-1.6.51a2,2,0,0,0-.76-.78,2.15,2.15,0,0,0-1.07-.27,2.2,2.2,0,0,0-1.19.33,2.27,2.27,0,0,0-.84.92,2.8,2.8,0,0,0-.31,1.35,2.84,2.84,0,0,0,.31,1.34,2.5,2.5,0,0,0,.85.94,2.08,2.08,0,0,0,1.19.35,2.35,2.35,0,0,0,.79-.14,2.32,2.32,0,0,0,.67-.39,1.46,1.46,0,0,0,.4-.55l1.62.48a3,3,0,0,1-.75,1,3.92,3.92,0,0,1-1.19.71A4.29,4.29,0,0,1,320.88,361.61Z"/><path d="M325.71,352.33v-1.82h1.65v1.82Zm0,9.13v-7.84h1.65v7.84Z"/><path d="M329.79,355.09h-1.05v-1.28h1.05v-.31a3.56,3.56,0,0,1,.19-1.18,3,3,0,0,1,.59-1,2.87,2.87,0,0,1,.95-.69,3.16,3.16,0,0,1,1.31-.26,4.44,4.44,0,0,1,1.05.12,5,5,0,0,1,.9.32,6,6,0,0,1,.72.43l-.67,1.23A2.62,2.62,0,0,0,334,352a2.92,2.92,0,0,0-1.05-.2,1.44,1.44,0,0,0-.85.24,1.39,1.39,0,0,0-.49.63,2.05,2.05,0,0,0-.16.81v.36h4.11v7.65H333.9v-6.37h-2.46v6.37h-1.65Z"/><path d="M341.08,361.61a4.15,4.15,0,0,1-1.65-.32,3.89,3.89,0,0,1-1.29-.88,4.19,4.19,0,0,1-.83-1.29,4.27,4.27,0,0,1-.29-1.55,4.16,4.16,0,0,1,.5-2,3.92,3.92,0,0,1,1.41-1.45,4,4,0,0,1,2.15-.55,4,4,0,0,1,2.1.53,3.26,3.26,0,0,1,1.31,1.42l-1.61.51a2,2,0,0,0-.75-.78,2.3,2.3,0,0,0-2.27.06,2.41,2.41,0,0,0-.84.92,2.92,2.92,0,0,0-.31,1.35,2.85,2.85,0,0,0,.32,1.34,2.42,2.42,0,0,0,.85.94,2.05,2.05,0,0,0,1.19.35,2.2,2.2,0,0,0,1.45-.53,1.5,1.5,0,0,0,.41-.55l1.62.48a2.94,2.94,0,0,1-.76,1,3.87,3.87,0,0,1-1.18.71A4.38,4.38,0,0,1,341.08,361.61Z"/><path d="M345.91,352.33v-1.82h1.65v1.82Zm0,9.13v-7.84h1.65v7.84Z"/><path d="M353.91,361.09c-.14.07-.32.14-.53.22a5,5,0,0,1-.71.21,3.68,3.68,0,0,1-.82.09,2.42,2.42,0,0,1-.94-.18,1.56,1.56,0,0,1-.7-.57,1.89,1.89,0,0,1-.26-1V355h-1v-1.27h1V351.1h1.65v2.58h1.71V355H351.6v4.36a.82.82,0,0,0,.26.59.89.89,0,0,0,.58.2,1.84,1.84,0,0,0,.66-.12,5,5,0,0,0,.46-.2Z"/><path d="M355.3,363.31l.45.06a1.7,1.7,0,0,0,.35,0,.63.63,0,0,0,.44-.16,1.54,1.54,0,0,0,.38-.57c.13-.27.29-.68.48-1.2l-3.22-7.8h1.72l2.4,6.13,2.13-6.13H362l-3.55,9.6a2.62,2.62,0,0,1-.48.8,2.16,2.16,0,0,1-.78.58,2.67,2.67,0,0,1-1.1.21l-.37,0-.44-.09Z"/><path d="M152.78,353.32a2.45,2.45,0,0,0-.43-.36,4.76,4.76,0,0,0-.68-.35,5.16,5.16,0,0,0-.84-.27,4.08,4.08,0,0,0-.93-.1,2.56,2.56,0,0,0-1.56.39,1.25,1.25,0,0,0-.51,1.07,1.09,1.09,0,0,0,.29.8,2.1,2.1,0,0,0,.87.49q.58.19,1.47.42a11.14,11.14,0,0,1,1.87.6,3,3,0,0,1,1.22.94,2.56,2.56,0,0,1,.42,1.54,3,3,0,0,1-.3,1.39,2.56,2.56,0,0,1-.84.95,4,4,0,0,1-1.25.54,6.59,6.59,0,0,1-1.51.17,7.64,7.64,0,0,1-1.58-.17,6.76,6.76,0,0,1-1.5-.49,6.2,6.2,0,0,1-1.32-.78l.77-1.44a3.24,3.24,0,0,0,.56.42,5.73,5.73,0,0,0,.86.45,7.32,7.32,0,0,0,1.06.35,5.21,5.21,0,0,0,1.18.14,2.77,2.77,0,0,0,1.54-.35,1.14,1.14,0,0,0,.53-1,1.15,1.15,0,0,0-.35-.87,2.82,2.82,0,0,0-1-.54c-.44-.15-1-.3-1.58-.45a10.88,10.88,0,0,1-1.75-.62,2.58,2.58,0,0,1-1.06-.87,2.42,2.42,0,0,1-.35-1.35,3,3,0,0,1,.51-1.77,3.11,3.11,0,0,1,1.39-1.1,5.12,5.12,0,0,1,2-.36,6,6,0,0,1,1.36.15,6.4,6.4,0,0,1,1.21.43,6.12,6.12,0,0,1,1,.62Z"/><path d="M159,361.61a4.15,4.15,0,0,1-1.65-.32,3.75,3.75,0,0,1-1.29-.88,4,4,0,0,1-.83-1.28,4.14,4.14,0,0,1-.29-1.54,4.06,4.06,0,0,1,.51-2,3.93,3.93,0,0,1,1.42-1.47,4.07,4.07,0,0,1,2.15-.55,3.81,3.81,0,0,1,3.51,2,4,4,0,0,1,.49,1.94c0,.12,0,.23,0,.34s0,.19,0,.26h-6.29a2.43,2.43,0,0,0,1.25,2,2.31,2.31,0,0,0,1.12.29,2.58,2.58,0,0,0,1.26-.33,1.72,1.72,0,0,0,.8-.87l1.41.4a3.13,3.13,0,0,1-.77,1,4.15,4.15,0,0,1-1.23.72A4.47,4.47,0,0,1,159,361.61ZM156.64,357h4.74a2.36,2.36,0,0,0-1.24-2,2.39,2.39,0,0,0-2.28,0,2.38,2.38,0,0,0-.85.79A2.41,2.41,0,0,0,156.64,357Z"/><path d="M171.4,361.46h-1.65v-4.34a2.88,2.88,0,0,0-.35-1.59,1.2,1.2,0,0,0-1.05-.5,2.21,2.21,0,0,0-.95.23,3.07,3.07,0,0,0-.85.64,2.46,2.46,0,0,0-.54.94v4.62h-1.65v-7.78h1.5v1.57a3.09,3.09,0,0,1,.79-.9,3.88,3.88,0,0,1,1.1-.59,4.33,4.33,0,0,1,1.31-.2,2.35,2.35,0,0,1,1.16.25,1.84,1.84,0,0,1,.72.69,2.7,2.7,0,0,1,.36,1,6.74,6.74,0,0,1,.1,1.21Z"/><path d="M176.11,361.61a5.58,5.58,0,0,1-1.88-.32,4,4,0,0,1-1.51-1l.61-1.11a4.71,4.71,0,0,0,1.36.87,3.7,3.7,0,0,0,1.36.27,2.09,2.09,0,0,0,1.12-.26.82.82,0,0,0,.44-.75.66.66,0,0,0-.23-.55,2,2,0,0,0-.65-.31l-1-.3a10.35,10.35,0,0,1-1.41-.53,2.12,2.12,0,0,1-.85-.68,1.69,1.69,0,0,1-.29-1,2.1,2.1,0,0,1,.39-1.29,2.47,2.47,0,0,1,1.09-.82,4.25,4.25,0,0,1,1.61-.28,4.57,4.57,0,0,1,1.59.26,3.42,3.42,0,0,1,1.28.82l-.71,1.09a3.58,3.58,0,0,0-1.07-.7,3.06,3.06,0,0,0-1.18-.23,3.1,3.1,0,0,0-.69.08,1.19,1.19,0,0,0-.54.3.78.78,0,0,0-.22.6.72.72,0,0,0,.18.51,1.51,1.51,0,0,0,.54.32l.88.3a15.54,15.54,0,0,1,1.56.53,2.5,2.5,0,0,1,1,.66,1.65,1.65,0,0,1,.35,1.12,2.08,2.08,0,0,1-.84,1.76A3.71,3.71,0,0,1,176.11,361.61Z"/><path d="M180.68,352.33v-1.82h1.65v1.82Zm0,9.13v-7.84h1.65v7.84Z"/><path d="M188.68,361.09c-.14.07-.32.14-.53.22a5,5,0,0,1-.71.21,3.68,3.68,0,0,1-.82.09,2.42,2.42,0,0,1-.94-.18,1.56,1.56,0,0,1-.7-.57,1.89,1.89,0,0,1-.26-1V355h-1v-1.27h1V351.1h1.65v2.58h1.71V355h-1.71v4.36a.82.82,0,0,0,.26.59.89.89,0,0,0,.58.2,1.84,1.84,0,0,0,.66-.12,5,5,0,0,0,.46-.2Z"/><path d="M189.82,352.33v-1.82h1.65v1.82Zm0,9.13v-7.84h1.65v7.84Z"/><path d="M195.64,361.46l-3-7.78h1.71l2.24,6.26,2.23-6.26h1.59l-3,7.78Z"/><path d="M201.61,352.33v-1.82h1.65v1.82Zm0,9.13v-7.84h1.65v7.84Z"/><path d="M209.6,361.09c-.14.07-.31.14-.52.22a5.2,5.2,0,0,1-.72.21,3.59,3.59,0,0,1-.81.09,2.47,2.47,0,0,1-1-.18,1.56,1.56,0,0,1-.7-.57,1.89,1.89,0,0,1-.26-1V355h-1v-1.27h1V351.1h1.65v2.58H209V355h-1.71v4.36a.82.82,0,0,0,.26.59.89.89,0,0,0,.58.2,1.84,1.84,0,0,0,.66-.12l.47-.2Z"/><path d="M211,363.31l.44.06a1.7,1.7,0,0,0,.35,0,.63.63,0,0,0,.44-.16,1.54,1.54,0,0,0,.39-.57c.13-.27.29-.68.48-1.2l-3.23-7.8h1.73l2.4,6.13,2.13-6.13h1.59l-3.56,9.6a2.62,2.62,0,0,1-.48.8,2.16,2.16,0,0,1-.78.58,2.62,2.62,0,0,1-1.09.21l-.38,0-.43-.09Z"/><path d="M433.53,129.52V118.87H438a2.94,2.94,0,0,1,1.32.3,3.67,3.67,0,0,1,1.05.79,3.53,3.53,0,0,1,.68,1.11,3.44,3.44,0,0,1,.24,1.26,3.81,3.81,0,0,1-.39,1.69,3.31,3.31,0,0,1-1.13,1.3,2.92,2.92,0,0,1-1.69.49h-2.87v3.71Zm1.68-5.19H438a1.42,1.42,0,0,0,.84-.26,1.76,1.76,0,0,0,.56-.72,2.38,2.38,0,0,0,.2-1,2.15,2.15,0,0,0-.24-1,1.84,1.84,0,0,0-.62-.7,1.53,1.53,0,0,0-.83-.25h-2.68Z"/><path d="M442.87,129.52V118.87h4.47a2.91,2.91,0,0,1,1.32.3,3.57,3.57,0,0,1,1.74,1.9,3.44,3.44,0,0,1,.24,1.26,3.69,3.69,0,0,1-.4,1.69,3.29,3.29,0,0,1-1.12,1.3,2.94,2.94,0,0,1-1.69.49h-2.88v3.71Zm1.68-5.19h2.77a1.47,1.47,0,0,0,.85-.26,1.94,1.94,0,0,0,.56-.72,2.54,2.54,0,0,0,.2-1,2.15,2.15,0,0,0-.24-1,1.93,1.93,0,0,0-.62-.7,1.56,1.56,0,0,0-.84-.25h-2.68Z"/><path d="M452.72,118.87l3.21,8.59,3.2-8.59h1.78l-4.18,10.65h-1.59l-4.2-10.65Z"/><path d="M435.21,251.18v7.53h-1.68V248.06h1.38l6,7.7v-7.68h1.7v10.63h-1.47Z"/><path d="M445,258.71V248.06h4.47a2.91,2.91,0,0,1,1.32.3,3.63,3.63,0,0,1,1.74,1.91,3.44,3.44,0,0,1,.24,1.26,3.72,3.72,0,0,1-.4,1.69,3.33,3.33,0,0,1-1.12,1.29,3,3,0,0,1-1.69.5h-2.88v3.7Zm1.68-5.19h2.77a1.4,1.4,0,0,0,.85-.26,1.83,1.83,0,0,0,.56-.71,2.54,2.54,0,0,0,.2-1,2.19,2.19,0,0,0-.24-1,1.81,1.81,0,0,0-.62-.69,1.48,1.48,0,0,0-.84-.25h-2.68Z"/><path d="M454.88,248.06l3.21,8.6,3.2-8.6h1.78l-4.18,10.65H457.3l-4.2-10.65Z"/><path d="M131.42,252V241.35h7.1v1.48H133.1V246h4.53v1.39H133.1V252Z"/><path d="M138.56,249.73a2.09,2.09,0,0,1,.43-1.3,2.87,2.87,0,0,1,1.18-.87,4.66,4.66,0,0,1,1.74-.3,9.77,9.77,0,0,1,1.07.07,4.15,4.15,0,0,1,1,.25v-.5a1.66,1.66,0,0,0-.5-1.27,2,2,0,0,0-1.42-.46,3.27,3.27,0,0,0-1.25.24,7.1,7.1,0,0,0-1.24.65l-.56-1.11a6.38,6.38,0,0,1,1.57-.78,5.38,5.38,0,0,1,1.66-.25,3.54,3.54,0,0,1,2.48.82,3,3,0,0,1,.91,2.33v2.9a.62.62,0,0,0,.1.4.42.42,0,0,0,.33.13V252l-.4.06-.3,0a1.13,1.13,0,0,1-.8-.26,1,1,0,0,1-.31-.6l-.05-.45a3.37,3.37,0,0,1-1.3,1,3.88,3.88,0,0,1-1.61.36,3,3,0,0,1-1.39-.32,2.38,2.38,0,0,1-1-.87A2.29,2.29,0,0,1,138.56,249.73Zm5,.47a1.9,1.9,0,0,0,.28-.39.71.71,0,0,0,.11-.34v-.88a4.32,4.32,0,0,0-.89-.24,4.73,4.73,0,0,0-.91-.08,2.65,2.65,0,0,0-1.46.35,1.09,1.09,0,0,0-.57,1,1.26,1.26,0,0,0,.19.65,1.37,1.37,0,0,0,.54.5,1.82,1.82,0,0,0,.88.2,2.6,2.6,0,0,0,1-.21A2.38,2.38,0,0,0,143.56,250.2Z"/><path d="M147.61,241.05h1.65v8.71a1.11,1.11,0,0,0,.18.77.64.64,0,0,0,.45.16,2,2,0,0,0,.56-.06,1.77,1.77,0,0,0,.46-.15l.24,1.31a4.2,4.2,0,0,1-.86.25,3.7,3.7,0,0,1-.88.11,1.82,1.82,0,0,1-1.32-.47,1.78,1.78,0,0,1-.48-1.32Z"/><path d="M154.9,252.15a5.58,5.58,0,0,1-1.88-.32,4,4,0,0,1-1.51-1l.61-1.11a4.71,4.71,0,0,0,1.36.87,3.7,3.7,0,0,0,1.36.27,2.18,2.18,0,0,0,1.12-.26.82.82,0,0,0,.44-.75.66.66,0,0,0-.23-.55,2,2,0,0,0-.65-.32l-1-.29a10.35,10.35,0,0,1-1.41-.53,2.12,2.12,0,0,1-.85-.68,1.71,1.71,0,0,1-.29-1,2.15,2.15,0,0,1,.39-1.3,2.52,2.52,0,0,1,1.09-.81,4.25,4.25,0,0,1,1.61-.28,4.57,4.57,0,0,1,1.59.26,3.53,3.53,0,0,1,1.28.81l-.71,1.1a3.62,3.62,0,0,0-1.07-.71,3.26,3.26,0,0,0-1.18-.22,3.1,3.1,0,0,0-.69.08,1.1,1.1,0,0,0-.54.3.78.78,0,0,0-.22.6.68.68,0,0,0,.18.5,1.39,1.39,0,0,0,.54.33l.88.3a15.75,15.75,0,0,1,1.56.52,2.62,2.62,0,0,1,1,.67,1.64,1.64,0,0,1,.35,1.12,2.08,2.08,0,0,1-.84,1.76A3.71,3.71,0,0,1,154.9,252.15Z"/><path d="M163,252.15a4.24,4.24,0,0,1-1.66-.32,4,4,0,0,1-1.28-.88,3.87,3.87,0,0,1-.83-1.28,4,4,0,0,1-.3-1.54,4.06,4.06,0,0,1,.51-2,4,4,0,0,1,1.43-1.47,4,4,0,0,1,2.14-.55,4,4,0,0,1,2.13.55,3.9,3.9,0,0,1,1.38,1.47,4,4,0,0,1,.5,1.94c0,.12,0,.23,0,.34s0,.19,0,.25h-6.28a2.47,2.47,0,0,0,.38,1.2,2.53,2.53,0,0,0,.86.8,2.35,2.35,0,0,0,1.13.29,2.42,2.42,0,0,0,1.25-.34,1.61,1.61,0,0,0,.8-.87l1.41.41a3,3,0,0,1-.77,1,4,4,0,0,1-1.22.72A4.47,4.47,0,0,1,163,252.15Zm-2.36-4.59h4.74a2.32,2.32,0,0,0-.38-1.17,2.36,2.36,0,0,0-2-1.08,2.36,2.36,0,0,0-2,1.08A2.42,2.42,0,0,0,160.67,247.56Z"/><path d="M179.14,252h-1.65v-4.34a2.86,2.86,0,0,0-.35-1.59,1.2,1.2,0,0,0-1-.51,2.09,2.09,0,0,0-1,.24,3.07,3.07,0,0,0-.85.64,2.39,2.39,0,0,0-.54.94V252H172.1v-7.79h1.5v1.58a3.09,3.09,0,0,1,.79-.9,3.88,3.88,0,0,1,1.1-.59,4,4,0,0,1,1.31-.2,2.35,2.35,0,0,1,1.16.25,1.84,1.84,0,0,1,.72.69,2.7,2.7,0,0,1,.36,1,6.66,6.66,0,0,1,.1,1.21Z"/><path d="M184.61,252.15a4.15,4.15,0,0,1-1.65-.32,3.89,3.89,0,0,1-1.29-.88,4,4,0,0,1-.83-1.28,4.14,4.14,0,0,1-.29-1.54,4.06,4.06,0,0,1,.51-2,3.93,3.93,0,0,1,1.42-1.47,4.07,4.07,0,0,1,2.15-.55,3.92,3.92,0,0,1,2.12.55,3.85,3.85,0,0,1,1.39,1.47,4,4,0,0,1,.49,1.94c0,.12,0,.23,0,.34s0,.19,0,.25H182.3a2.38,2.38,0,0,0,.39,1.2,2.44,2.44,0,0,0,.86.8,2.31,2.31,0,0,0,1.12.29,2.49,2.49,0,0,0,1.26-.34,1.65,1.65,0,0,0,.8-.87l1.41.41a3.13,3.13,0,0,1-.77,1,4.15,4.15,0,0,1-1.23.72A4.47,4.47,0,0,1,184.61,252.15Zm-2.35-4.59H187a2.36,2.36,0,0,0-1.24-2,2.39,2.39,0,0,0-2.28,0,2.38,2.38,0,0,0-.85.79A2.41,2.41,0,0,0,182.26,247.56Z"/><path d="M193.09,252.15a3.36,3.36,0,0,1-1.46-.32,3.49,3.49,0,0,1-1.13-.88,4.14,4.14,0,0,1-.73-1.28,4.25,4.25,0,0,1-.27-1.51,4.6,4.6,0,0,1,.27-1.58,4.27,4.27,0,0,1,.76-1.29,3.34,3.34,0,0,1,2.62-1.19,3.05,3.05,0,0,1,1.66.44A3.7,3.7,0,0,1,196,245.7v-1.49h1.46v7.58a3.35,3.35,0,0,1-.55,1.93,3.5,3.5,0,0,1-1.49,1.21,5.19,5.19,0,0,1-2.13.42,4.61,4.61,0,0,1-2.16-.45,4.43,4.43,0,0,1-1.46-1.23l.93-.88a2.81,2.81,0,0,0,1.17,1,3.55,3.55,0,0,0,1.52.33,3.2,3.2,0,0,0,1.25-.23,2.09,2.09,0,0,0,.92-.74,2.16,2.16,0,0,0,.35-1.26v-1.2a2.93,2.93,0,0,1-1.16,1.1A3.13,3.13,0,0,1,193.09,252.15Zm.54-1.34a2.18,2.18,0,0,0,.72-.12,2.66,2.66,0,0,0,.64-.35,2.58,2.58,0,0,0,.5-.49,1.88,1.88,0,0,0,.3-.6V247.2a2.64,2.64,0,0,0-.56-.89,2.59,2.59,0,0,0-.81-.6,2.28,2.28,0,0,0-.91-.21,2,2,0,0,0-1,.24,2.38,2.38,0,0,0-.73.61,3.1,3.1,0,0,0-.46.86,3.14,3.14,0,0,0-.17,1,2.78,2.78,0,0,0,.19,1,2.84,2.84,0,0,0,.52.83,2.19,2.19,0,0,0,.78.57A2.23,2.23,0,0,0,193.63,250.81Z"/><path d="M198.85,249.73a2,2,0,0,1,.43-1.3,2.77,2.77,0,0,1,1.17-.87,4.66,4.66,0,0,1,1.74-.3,10.11,10.11,0,0,1,1.08.07,4.2,4.2,0,0,1,1,.25v-.5a1.65,1.65,0,0,0-.49-1.27,2.06,2.06,0,0,0-1.43-.46,3.22,3.22,0,0,0-1.24.24,7.17,7.17,0,0,0-1.25.65l-.55-1.11a6.21,6.21,0,0,1,1.57-.78,5.27,5.27,0,0,1,1.65-.25,3.58,3.58,0,0,1,2.49.82,3,3,0,0,1,.9,2.33v2.9a.69.69,0,0,0,.1.4.45.45,0,0,0,.34.13V252l-.41.06-.3,0a1.11,1.11,0,0,1-.79-.26,1,1,0,0,1-.32-.6l0-.45a3.4,3.4,0,0,1-1.31,1,3.84,3.84,0,0,1-1.6.36,3,3,0,0,1-1.4-.32,2.38,2.38,0,0,1-1-.87A2.28,2.28,0,0,1,198.85,249.73Zm5,.47a2,2,0,0,0,.29-.39.69.69,0,0,0,.1-.34v-.88a4.23,4.23,0,0,0-.88-.24,4.84,4.84,0,0,0-.92-.08,2.68,2.68,0,0,0-1.46.35,1.1,1.1,0,0,0-.56,1,1.17,1.17,0,0,0,.19.65,1.25,1.25,0,0,0,.54.5,1.75,1.75,0,0,0,.87.2,2.65,2.65,0,0,0,1-.21A2.33,2.33,0,0,0,203.84,250.2Z"/><path d="M212.18,251.62a3.78,3.78,0,0,1-.52.23,5.47,5.47,0,0,1-.71.21,3.75,3.75,0,0,1-.82.09,2.47,2.47,0,0,1-.95-.18,1.48,1.48,0,0,1-.69-.57,1.81,1.81,0,0,1-.27-1v-4.88h-1v-1.28h1v-2.58h1.65v2.58h1.71v1.28h-1.71v4.35a.81.81,0,0,0,.27.6.84.84,0,0,0,.57.19,1.83,1.83,0,0,0,.66-.11l.47-.2Z"/><path d="M213.32,242.87v-1.82H215v1.82Zm0,9.13v-7.85H215V252Z"/><path d="M219.14,252l-3-7.79h1.71l2.23,6.27,2.24-6.27h1.59l-3,7.79Z"/><path d="M228.4,252.15a4.2,4.2,0,0,1-1.66-.32,4,4,0,0,1-1.28-.88,4.06,4.06,0,0,1-.84-1.28,4.14,4.14,0,0,1-.29-1.54,4.06,4.06,0,0,1,.51-2,4,4,0,0,1,1.43-1.47,4,4,0,0,1,2.14-.55,4,4,0,0,1,2.13.55,3.9,3.9,0,0,1,1.38,1.47,4,4,0,0,1,.5,1.94c0,.12,0,.23,0,.34s0,.19,0,.25h-6.28a2.47,2.47,0,0,0,.38,1.2,2.44,2.44,0,0,0,.86.8,2.35,2.35,0,0,0,1.13.29,2.45,2.45,0,0,0,1.25-.34,1.65,1.65,0,0,0,.8-.87l1.41.41a3,3,0,0,1-.77,1,4,4,0,0,1-1.22.72A4.47,4.47,0,0,1,228.4,252.15ZM226,247.56h4.74a2.36,2.36,0,0,0-1.24-2,2.36,2.36,0,0,0-3.12.79A2.42,2.42,0,0,0,226,247.56Z"/><path d="M164.65,272.54a9.72,9.72,0,0,1,.8-3.81,34.74,34.74,0,0,1,2-3.84l1.61.68a11.16,11.16,0,0,0-.75,1.29,18.63,18.63,0,0,0-.79,1.77,15.78,15.78,0,0,0-.62,2,8.14,8.14,0,0,0-.25,2,8.87,8.87,0,0,0,.64,3.18,20.67,20.67,0,0,0,1.71,3.43l-1.52.78a27.53,27.53,0,0,1-1.43-2.43,13.36,13.36,0,0,1-1-2.51A9.17,9.17,0,0,1,164.65,272.54Z"/><path d="M171.05,279.1V265.65h9v1.87h-6.84v4h5.72v1.76h-5.72v5.8Z"/><path d="M184.14,269.59v9.51H182V265.65h1.74l7.62,9.72v-9.7h2.14V279.1h-1.86Z"/><path d="M199.9,272.54a9.17,9.17,0,0,1-.36,2.51,13.31,13.31,0,0,1-1,2.51,25.15,25.15,0,0,1-1.42,2.43l-1.54-.78a21.56,21.56,0,0,0,1.72-3.43,8.89,8.89,0,0,0,.65-3.18,8.14,8.14,0,0,0-.25-2,14.35,14.35,0,0,0-.63-2,18.58,18.58,0,0,0-.8-1.77,13.19,13.19,0,0,0-.73-1.29l1.6-.68a31.58,31.58,0,0,1,2,3.84A9.71,9.71,0,0,1,199.9,272.54Z"/><path d="M285.81,242.83h-3.54V252h-1.7v-9.17H277v-1.48h8.79Z"/><path d="M290.45,245.58a3.53,3.53,0,0,0-1.71.44,2.28,2.28,0,0,0-1.05,1.18V252H286v-7.79h1.52v1.7a3.62,3.62,0,0,1,1.07-1.3,2.64,2.64,0,0,1,1.4-.53h.24a.52.52,0,0,1,.18,0Z"/><path d="M291.57,249v-4.77h1.65v4.43a2.69,2.69,0,0,0,.38,1.57,1.31,1.31,0,0,0,1.12.53,2.25,2.25,0,0,0,.91-.19,2.72,2.72,0,0,0,.81-.57,3,3,0,0,0,.59-.91v-4.86h1.65v5.94a.56.56,0,0,0,.11.4.45.45,0,0,0,.34.13V252l-.42.06-.32,0a1.17,1.17,0,0,1-.75-.25.94.94,0,0,1-.34-.63l0-.78a3.46,3.46,0,0,1-1.37,1.29,3.93,3.93,0,0,1-1.84.44,2.23,2.23,0,0,1-1.86-.8A3.8,3.8,0,0,1,291.57,249Z"/><path d="M304.33,252.15a4.15,4.15,0,0,1-1.65-.32,3.89,3.89,0,0,1-1.29-.88,4.21,4.21,0,0,1-.83-1.28,4.14,4.14,0,0,1-.29-1.54,4.06,4.06,0,0,1,.51-2,3.88,3.88,0,0,1,1.43-1.47,4,4,0,0,1,2.14-.55,3.92,3.92,0,0,1,2.12.55,3.85,3.85,0,0,1,1.39,1.47,4,4,0,0,1,.49,1.94c0,.12,0,.23,0,.34s0,.19,0,.25H302a2.38,2.38,0,0,0,.39,1.2,2.44,2.44,0,0,0,.86.8,2.31,2.31,0,0,0,1.12.29,2.49,2.49,0,0,0,1.26-.34,1.65,1.65,0,0,0,.8-.87l1.41.41a3.13,3.13,0,0,1-.77,1,4.23,4.23,0,0,1-1.22.72A4.57,4.57,0,0,1,304.33,252.15ZM302,247.56h4.74a2.36,2.36,0,0,0-1.24-2,2.39,2.39,0,0,0-2.28,0,2.38,2.38,0,0,0-.85.79A2.41,2.41,0,0,0,302,247.56Z"/><path d="M320.44,252h-1.65v-4.34a2.77,2.77,0,0,0-.35-1.59,1.18,1.18,0,0,0-1-.51,2.06,2.06,0,0,0-.95.24,2.93,2.93,0,0,0-.85.64,2.39,2.39,0,0,0-.54.94V252h-1.65v-7.79h1.5v1.58a3,3,0,0,1,.79-.9,3.75,3.75,0,0,1,1.1-.59,4,4,0,0,1,1.3-.2,2.41,2.41,0,0,1,1.17.25,2,2,0,0,1,.72.69,3.1,3.1,0,0,1,.36,1,7.73,7.73,0,0,1,.09,1.21Z"/><path d="M325.92,252.15a4.24,4.24,0,0,1-1.66-.32A4,4,0,0,1,323,251a3.87,3.87,0,0,1-.83-1.28,4,4,0,0,1-.3-1.54,4.06,4.06,0,0,1,.51-2,4,4,0,0,1,1.43-1.47,4,4,0,0,1,2.14-.55,4,4,0,0,1,2.13.55,3.9,3.9,0,0,1,1.38,1.47,4,4,0,0,1,.5,1.94c0,.12,0,.23,0,.34s0,.19,0,.25h-6.28a2.47,2.47,0,0,0,.38,1.2,2.53,2.53,0,0,0,.86.8,2.35,2.35,0,0,0,1.13.29,2.42,2.42,0,0,0,1.25-.34,1.61,1.61,0,0,0,.8-.87l1.41.41a3,3,0,0,1-.77,1,4,4,0,0,1-1.22.72A4.47,4.47,0,0,1,325.92,252.15Zm-2.36-4.59h4.74a2.32,2.32,0,0,0-.38-1.17,2.36,2.36,0,0,0-2-1.08,2.36,2.36,0,0,0-2,1.08A2.42,2.42,0,0,0,323.56,247.56Z"/><path d="M334.39,252.15a3.31,3.31,0,0,1-1.45-.32,3.49,3.49,0,0,1-1.13-.88,4.17,4.17,0,0,1-.74-1.28,4.48,4.48,0,0,1-.26-1.51,4.6,4.6,0,0,1,.27-1.58,4.07,4.07,0,0,1,.76-1.29,3.3,3.3,0,0,1,2.61-1.19,3,3,0,0,1,1.66.44,3.63,3.63,0,0,1,1.18,1.16v-1.49h1.45v7.58a3.35,3.35,0,0,1-.54,1.93,3.53,3.53,0,0,1-1.5,1.21,5.19,5.19,0,0,1-2.13.42,4.61,4.61,0,0,1-2.16-.45,4.39,4.39,0,0,1-1.45-1.23l.93-.88a2.85,2.85,0,0,0,1.16,1,3.58,3.58,0,0,0,1.52.33,3.28,3.28,0,0,0,1.26-.23,2.09,2.09,0,0,0,.92-.74,2.15,2.15,0,0,0,.34-1.26v-1.2a2.9,2.9,0,0,1-1.15,1.1A3.17,3.17,0,0,1,334.39,252.15Zm.54-1.34a2.18,2.18,0,0,0,.72-.12,2.48,2.48,0,0,0,.64-.35,2.33,2.33,0,0,0,.5-.49,1.88,1.88,0,0,0,.3-.6V247.2a2.62,2.62,0,0,0-.55-.89,2.59,2.59,0,0,0-.81-.6,2.33,2.33,0,0,0-.92-.21,1.9,1.9,0,0,0-1,.24,2.27,2.27,0,0,0-.73.61,2.93,2.93,0,0,0-.63,1.86,2.58,2.58,0,0,0,.19,1,2.62,2.62,0,0,0,.51.83,2.19,2.19,0,0,0,.78.57A2.23,2.23,0,0,0,334.93,250.81Z"/><path d="M340.15,249.73a2.09,2.09,0,0,1,.43-1.3,2.87,2.87,0,0,1,1.18-.87,4.66,4.66,0,0,1,1.74-.3,9.77,9.77,0,0,1,1.07.07,4.15,4.15,0,0,1,1,.25v-.5a1.66,1.66,0,0,0-.5-1.27,2,2,0,0,0-1.42-.46,3.27,3.27,0,0,0-1.25.24,7.1,7.1,0,0,0-1.24.65l-.56-1.11a6.38,6.38,0,0,1,1.57-.78,5.38,5.38,0,0,1,1.66-.25,3.54,3.54,0,0,1,2.48.82,3,3,0,0,1,.91,2.33v2.9a.62.62,0,0,0,.1.4.42.42,0,0,0,.33.13V252l-.4.06-.3,0a1.13,1.13,0,0,1-.8-.26,1,1,0,0,1-.31-.6l-.05-.45a3.37,3.37,0,0,1-1.3,1,3.88,3.88,0,0,1-1.61.36,3,3,0,0,1-1.39-.32,2.38,2.38,0,0,1-1-.87A2.29,2.29,0,0,1,340.15,249.73Zm5,.47a1.9,1.9,0,0,0,.28-.39.71.71,0,0,0,.11-.34v-.88a4.32,4.32,0,0,0-.89-.24,4.73,4.73,0,0,0-.91-.08,2.65,2.65,0,0,0-1.46.35,1.09,1.09,0,0,0-.57,1,1.26,1.26,0,0,0,.19.65,1.37,1.37,0,0,0,.54.5,1.82,1.82,0,0,0,.88.2,2.6,2.6,0,0,0,1-.21A2.38,2.38,0,0,0,345.15,250.2Z"/><path d="M353.49,251.62a4,4,0,0,1-.53.23,5,5,0,0,1-.71.21,3.68,3.68,0,0,1-.82.09,2.42,2.42,0,0,1-.94-.18,1.56,1.56,0,0,1-.7-.57,1.89,1.89,0,0,1-.26-1v-4.88h-1v-1.28h1v-2.58h1.65v2.58h1.71v1.28h-1.71v4.35a.84.84,0,0,0,.26.6.88.88,0,0,0,.58.19,1.83,1.83,0,0,0,.66-.11,5,5,0,0,0,.46-.2Z"/><path d="M354.63,242.87v-1.82h1.65v1.82Zm0,9.13v-7.85h1.65V252Z"/><path d="M360.45,252l-3-7.79h1.71l2.24,6.27,2.23-6.27h1.59l-3,7.79Z"/><path d="M369.7,252.15a4.15,4.15,0,0,1-1.65-.32,3.92,3.92,0,0,1-2.12-2.16,4.14,4.14,0,0,1-.29-1.54,4.06,4.06,0,0,1,.51-2,3.93,3.93,0,0,1,1.42-1.47,4.07,4.07,0,0,1,2.15-.55,3.92,3.92,0,0,1,2.12.55,3.85,3.85,0,0,1,1.39,1.47,4,4,0,0,1,.49,1.94c0,.12,0,.23,0,.34s0,.19,0,.25h-6.29a2.38,2.38,0,0,0,.39,1.2,2.44,2.44,0,0,0,.86.8,2.31,2.31,0,0,0,1.12.29,2.49,2.49,0,0,0,1.26-.34,1.65,1.65,0,0,0,.8-.87l1.41.41a3.13,3.13,0,0,1-.77,1,4.15,4.15,0,0,1-1.23.72A4.47,4.47,0,0,1,369.7,252.15Zm-2.35-4.59h4.74a2.36,2.36,0,0,0-1.24-2,2.39,2.39,0,0,0-2.28,0,2.38,2.38,0,0,0-.85.79A2.41,2.41,0,0,0,367.35,247.56Z"/><path d="M305.68,272.54a9.56,9.56,0,0,1,.81-3.81,33,33,0,0,1,1.94-3.84l1.61.68a11.16,11.16,0,0,0-.75,1.29c-.27.53-.53,1.12-.79,1.77a15.78,15.78,0,0,0-.62,2,8.14,8.14,0,0,0-.25,2,8.89,8.89,0,0,0,.65,3.18,20.59,20.59,0,0,0,1.7,3.43l-1.51.78a25.27,25.27,0,0,1-1.43-2.43,12.75,12.75,0,0,1-1-2.51A9.17,9.17,0,0,1,305.68,272.54Z"/><path d="M322,267.52h-4.47V279.1H315.4V267.52h-4.49v-1.87H322Z"/><path d="M325.93,269.59v9.51h-2.12V265.65h1.74l7.62,9.72v-9.7h2.14V279.1h-1.86Z"/><path d="M341.69,272.54a9.17,9.17,0,0,1-.36,2.51,13.31,13.31,0,0,1-1,2.51,25.15,25.15,0,0,1-1.42,2.43l-1.54-.78a21.56,21.56,0,0,0,1.72-3.43,8.89,8.89,0,0,0,.65-3.18,8.63,8.63,0,0,0-.24-2,15.88,15.88,0,0,0-.64-2,18.58,18.58,0,0,0-.8-1.77q-.4-.8-.72-1.29l1.59-.68a31.58,31.58,0,0,1,1.95,3.84A9.71,9.71,0,0,1,341.69,272.54Z"/><path d="M41.35,248.36v7.53H39.67V245.24h1.38l6,7.7v-7.68h1.7v10.63H47.31Z"/><path d="M54.39,256a4,4,0,0,1-1.66-.32,3.71,3.71,0,0,1-1.28-.88,4,4,0,0,1-.84-1.28,4.14,4.14,0,0,1-.29-1.54,4.06,4.06,0,0,1,.51-2,4.11,4.11,0,0,1,1.43-1.47A4,4,0,0,1,54.4,248a3.86,3.86,0,0,1,3.51,2,4,4,0,0,1,.5,1.94c0,.12,0,.23,0,.34s0,.19,0,.26H52.08a2.38,2.38,0,0,0,2.37,2.28,2.54,2.54,0,0,0,1.25-.33,1.72,1.72,0,0,0,.8-.87l1.41.4a3,3,0,0,1-.77,1,3.72,3.72,0,0,1-1.22.72A4.24,4.24,0,0,1,54.39,256ZM52,251.45h4.74a2.42,2.42,0,0,0-.38-1.17,2.5,2.5,0,0,0-.86-.79,2.3,2.3,0,0,0-1.14-.29,2.36,2.36,0,0,0-1.14.29,2.4,2.4,0,0,0-1.22,2Z"/><path d="M62.86,256a3.18,3.18,0,0,1-1.45-.32,3.49,3.49,0,0,1-1.14-.88,4.09,4.09,0,0,1-.73-1.27,4.3,4.3,0,0,1-.26-1.52,4.5,4.5,0,0,1,.27-1.57,4.29,4.29,0,0,1,.75-1.3,3.64,3.64,0,0,1,1.15-.88,3.37,3.37,0,0,1,1.47-.31,3.14,3.14,0,0,1,1.66.44,3.84,3.84,0,0,1,1.18,1.16v-1.48h1.45v7.58a3.27,3.27,0,0,1-.55,1.92,3.44,3.44,0,0,1-1.49,1.21,5.19,5.19,0,0,1-2.13.42,4.61,4.61,0,0,1-2.16-.45,4.39,4.39,0,0,1-1.45-1.23l.93-.87a2.86,2.86,0,0,0,1.16,1A3.55,3.55,0,0,0,63,258a3.2,3.2,0,0,0,1.25-.24,2,2,0,0,0,.93-.74,2.15,2.15,0,0,0,.34-1.26v-1.2a3,3,0,0,1-1.15,1.11A3.27,3.27,0,0,1,62.86,256Zm.54-1.33a2,2,0,0,0,.72-.13,2.42,2.42,0,0,0,1.14-.84,1.74,1.74,0,0,0,.3-.59v-2.06a2.66,2.66,0,0,0-1.36-1.48,2.17,2.17,0,0,0-.92-.21,2.07,2.07,0,0,0-1,.23,2.38,2.38,0,0,0-.72.62,2.87,2.87,0,0,0-.47.86,3,3,0,0,0-.16,1,2.73,2.73,0,0,0,.18,1,3,3,0,0,0,.52.84,2.46,2.46,0,0,0,.78.57A2.39,2.39,0,0,0,63.4,254.71Z"/><path d="M68.62,253.62a2,2,0,0,1,.43-1.3,2.71,2.71,0,0,1,1.18-.86,4.47,4.47,0,0,1,1.74-.31,7.94,7.94,0,0,1,1.07.08,4.3,4.3,0,0,1,1,.24V251a1.64,1.64,0,0,0-.5-1.27,2,2,0,0,0-1.42-.46,3.47,3.47,0,0,0-1.25.23,7.86,7.86,0,0,0-1.24.65L69,249a6.21,6.21,0,0,1,1.57-.78,5.34,5.34,0,0,1,1.66-.25,3.55,3.55,0,0,1,2.48.82,3,3,0,0,1,.91,2.34V254a.67.67,0,0,0,.09.4.46.46,0,0,0,.34.13v1.32l-.4.06-.3,0a1.13,1.13,0,0,1-.8-.26,1,1,0,0,1-.31-.6l0-.45a3.37,3.37,0,0,1-1.3,1,3.88,3.88,0,0,1-1.61.36,2.88,2.88,0,0,1-1.39-.32,2.38,2.38,0,0,1-1-.87A2.24,2.24,0,0,1,68.62,253.62Zm5,.47a2.16,2.16,0,0,0,.28-.38.74.74,0,0,0,.11-.34v-.89a5.06,5.06,0,0,0-.89-.24,5.69,5.69,0,0,0-.91-.08,2.81,2.81,0,0,0-1.47.35,1.11,1.11,0,0,0-.56,1,1.16,1.16,0,0,0,.19.64,1.33,1.33,0,0,0,.54.51,1.91,1.91,0,0,0,.88.19,2.6,2.6,0,0,0,1-.21A2.24,2.24,0,0,0,73.62,254.09Z"/><path d="M82,255.52c-.14.07-.32.14-.53.22a5.47,5.47,0,0,1-.71.21,3.75,3.75,0,0,1-.82.09,2.42,2.42,0,0,1-.94-.18,1.45,1.45,0,0,1-.7-.57,1.78,1.78,0,0,1-.26-1v-4.89H77v-1.27h1v-2.58h1.65v2.58h1.71v1.27H79.65v4.36a.76.76,0,0,0,.26.59.87.87,0,0,0,.58.2,1.84,1.84,0,0,0,.66-.12,5,5,0,0,0,.46-.2Z"/><path d="M83.1,246.76v-1.82h1.65v1.82Zm0,9.13v-7.84h1.65v7.84Z"/><path d="M88.92,255.89l-3-7.78h1.71l2.24,6.27,2.23-6.27H93.7l-3,7.78Z"/><path d="M98.17,256a4.06,4.06,0,0,1-1.66-.32,3.94,3.94,0,0,1-2.11-2.16,4,4,0,0,1-.29-1.54,3.94,3.94,0,0,1,4.08-4,3.86,3.86,0,0,1,3.51,2,4,4,0,0,1,.49,1.94c0,.12,0,.23,0,.34s0,.19,0,.26H95.86a2.37,2.37,0,0,0,1.25,2,2.31,2.31,0,0,0,1.12.29,2.51,2.51,0,0,0,1.25-.33,1.7,1.7,0,0,0,.81-.87l1.41.4a2.94,2.94,0,0,1-.78,1,3.62,3.62,0,0,1-1.22.72A4.24,4.24,0,0,1,98.17,256Zm-2.35-4.59h4.74a2.33,2.33,0,0,0-.39-1.17,2.47,2.47,0,0,0-.85-.79,2.37,2.37,0,0,0-1.15-.29,2.29,2.29,0,0,0-1.13.29,2.39,2.39,0,0,0-.85.79A2.41,2.41,0,0,0,95.82,251.45Z"/><path d="M226.54,27.74V17.09h3.87a5.55,5.55,0,0,1,2.91.71,4.58,4.58,0,0,1,1.76,1.92,6.08,6.08,0,0,1,.58,2.68,5.87,5.87,0,0,1-.64,2.82,4.59,4.59,0,0,1-1.82,1.86,5.64,5.64,0,0,1-2.79.66Zm7-5.34a4.17,4.17,0,0,0-.38-1.82,2.82,2.82,0,0,0-1.08-1.23,3.11,3.11,0,0,0-1.71-.45h-1.8v7h1.8a3.16,3.16,0,0,0,1.73-.45,2.93,2.93,0,0,0,1.07-1.26A4.25,4.25,0,0,0,233.58,22.4Z"/><path d="M237.06,18.78v-2h2v2Zm0,9V19.88h2v7.86Z"/><path d="M243.78,27.89a5.62,5.62,0,0,1-1.92-.33,4.35,4.35,0,0,1-1.58-1l.72-1.3a5.48,5.48,0,0,0,1.39.84,3.57,3.57,0,0,0,1.31.27,1.93,1.93,0,0,0,.94-.2.66.66,0,0,0,.35-.61.53.53,0,0,0-.19-.44,2,2,0,0,0-.56-.27l-.9-.27a11.82,11.82,0,0,1-1.45-.55,2.12,2.12,0,0,1-.88-.67,1.77,1.77,0,0,1-.29-1,2.18,2.18,0,0,1,.4-1.33,2.49,2.49,0,0,1,1.11-.86,4.08,4.08,0,0,1,1.67-.32,4.66,4.66,0,0,1,1.59.27,3.68,3.68,0,0,1,1.36.84L246,22.22a4.68,4.68,0,0,0-1.14-.68,2.79,2.79,0,0,0-1.09-.22,2.22,2.22,0,0,0-.59.07.9.9,0,0,0-.45.25.62.62,0,0,0-.18.48.6.6,0,0,0,.16.43,1.35,1.35,0,0,0,.48.28l.79.26a13.33,13.33,0,0,1,1.6.55,2.47,2.47,0,0,1,1,.68,1.74,1.74,0,0,1,.33,1.12,2.13,2.13,0,0,1-.86,1.8A3.71,3.71,0,0,1,243.78,27.89Z"/><path d="M251.94,27.89a4.45,4.45,0,0,1-1.71-.32,3.85,3.85,0,0,1-1.31-.87,4,4,0,0,1-.83-1.28,4.11,4.11,0,0,1-.29-1.52,4.21,4.21,0,0,1,.5-2,3.86,3.86,0,0,1,1.44-1.48,4.27,4.27,0,0,1,2.21-.56,4.19,4.19,0,0,1,2.21.56,3.73,3.73,0,0,1,1.4,1.47,4.08,4.08,0,0,1,.49,2c0,.12,0,.24,0,.37s0,.22,0,.3h-6.07a2.34,2.34,0,0,0,.35,1,2,2,0,0,0,.75.66,2.21,2.21,0,0,0,1,.23,2.41,2.41,0,0,0,1.14-.29,1.59,1.59,0,0,0,.72-.78l1.73.48a3.23,3.23,0,0,1-.82,1.07,4,4,0,0,1-1.25.73A4.73,4.73,0,0,1,251.94,27.89Zm-2.06-4.67H254a2.28,2.28,0,0,0-.33-1,2,2,0,0,0-.73-.68,2.12,2.12,0,0,0-1-.24,2,2,0,0,0-1.7.92A2.28,2.28,0,0,0,249.88,23.22Z"/><path d="M256.74,25.44a2.11,2.11,0,0,1,.43-1.32,2.64,2.64,0,0,1,1.19-.88,4.55,4.55,0,0,1,1.75-.32,7,7,0,0,1,1,.08,3.4,3.4,0,0,1,.88.24v-.42a1.41,1.41,0,0,0-.44-1.13,1.87,1.87,0,0,0-1.31-.4,3.39,3.39,0,0,0-1.23.22,6.22,6.22,0,0,0-1.23.66l-.65-1.32a6.86,6.86,0,0,1,1.6-.76,5.78,5.78,0,0,1,1.72-.26,3.85,3.85,0,0,1,2.62.83A3,3,0,0,1,264,23V25.5a.64.64,0,0,0,.12.44.51.51,0,0,0,.36.16v1.64l-.48.07-.37,0a1.35,1.35,0,0,1-.91-.27,1.17,1.17,0,0,1-.38-.66l-.05-.4a3.42,3.42,0,0,1-1.27,1,3.63,3.63,0,0,1-1.56.36,3,3,0,0,1-1.4-.32,2.44,2.44,0,0,1-1-.87A2.34,2.34,0,0,1,256.74,25.44Zm4.89.39a1.73,1.73,0,0,0,.27-.35.6.6,0,0,0,.1-.32v-.77a3.73,3.73,0,0,0-.78-.23,4.5,4.5,0,0,0-.79-.08,2.27,2.27,0,0,0-1.28.33,1,1,0,0,0-.51.87,1,1,0,0,0,.17.55,1.19,1.19,0,0,0,.48.43,1.6,1.6,0,0,0,.75.16,2.46,2.46,0,0,0,.88-.17A2.12,2.12,0,0,0,261.63,25.83Z"/><path d="M268.78,27.89a5.62,5.62,0,0,1-1.92-.33,4.31,4.31,0,0,1-1.57-1l.72-1.3a5.31,5.31,0,0,0,1.39.84,3.53,3.53,0,0,0,1.31.27,2,2,0,0,0,.94-.2.67.67,0,0,0,.35-.61.54.54,0,0,0-.2-.44,1.82,1.82,0,0,0-.56-.27l-.89-.27a12,12,0,0,1-1.46-.55,2,2,0,0,1-.87-.67,1.71,1.71,0,0,1-.3-1,2.25,2.25,0,0,1,.4-1.33,2.6,2.6,0,0,1,1.11-.86,4.11,4.11,0,0,1,1.67-.32,4.66,4.66,0,0,1,1.59.27,3.71,3.71,0,0,1,1.37.84l-.81,1.28a4.68,4.68,0,0,0-1.14-.68,2.84,2.84,0,0,0-1.1-.22,2.27,2.27,0,0,0-.59.07,1,1,0,0,0-.45.25.65.65,0,0,0-.17.48.56.56,0,0,0,.16.43,1.19,1.19,0,0,0,.48.28l.78.26a12.74,12.74,0,0,1,1.6.55,2.4,2.4,0,0,1,1,.68,1.74,1.74,0,0,1,.33,1.12,2.12,2.12,0,0,1-.85,1.8A3.74,3.74,0,0,1,268.78,27.89Z"/><path d="M276.94,27.89a4.45,4.45,0,0,1-1.71-.32,3.81,3.81,0,0,1-1.3-.87,3.87,3.87,0,0,1-.83-1.28,3.92,3.92,0,0,1-.3-1.52,4.11,4.11,0,0,1,.51-2,3.72,3.72,0,0,1,1.44-1.48,4.24,4.24,0,0,1,2.21-.56,4.16,4.16,0,0,1,2.2.56,3.82,3.82,0,0,1,1.41,1.47,4.19,4.19,0,0,1,.48,2c0,.12,0,.24,0,.37s0,.22,0,.3h-6.08a2.23,2.23,0,0,0,.36,1,1.84,1.84,0,0,0,.75.66,2.17,2.17,0,0,0,1,.23,2.35,2.35,0,0,0,1.13-.29,1.57,1.57,0,0,0,.73-.78l1.72.48a3.33,3.33,0,0,1-.81,1.07,4.12,4.12,0,0,1-1.26.73A4.73,4.73,0,0,1,276.94,27.89Zm-2.05-4.67H279a2.17,2.17,0,0,0-.34-1,1.91,1.91,0,0,0-.73-.68,2.08,2.08,0,0,0-1-.24,2,2,0,0,0-1,.24,1.88,1.88,0,0,0-.72.68A2.17,2.17,0,0,0,274.89,23.22Z"/><path d="M282.4,22.11V20H284v2.16Zm0,5.63V25.58H284v2.16Z"/><path d="M19.31,185.14h-3.4V194H13.85v-8.83h-3.4v-1.82h8.86Z"/><path d="M22.6,194.12a4.45,4.45,0,0,1-1.71-.31,4,4,0,0,1-1.31-.88,4,4,0,0,1-1.12-2.8,4.13,4.13,0,0,1,.5-2,3.76,3.76,0,0,1,1.44-1.47,4.24,4.24,0,0,1,2.21-.56,4.19,4.19,0,0,1,2.21.56,3.8,3.8,0,0,1,1.4,1.47,4.17,4.17,0,0,1,.49,2c0,.12,0,.24,0,.36s0,.23,0,.3H20.59a2.14,2.14,0,0,0,.35,1,1.86,1.86,0,0,0,.75.67,2.17,2.17,0,0,0,1,.22,2.24,2.24,0,0,0,1.13-.29,1.51,1.51,0,0,0,.73-.77l1.73.48a3.33,3.33,0,0,1-.82,1.06,3.88,3.88,0,0,1-1.25.73A4.5,4.5,0,0,1,22.6,194.12Zm-2.06-4.66h4.11a2.25,2.25,0,0,0-.34-1,1.86,1.86,0,0,0-.72-.67,2.13,2.13,0,0,0-1-.25,2,2,0,0,0-1,.25,1.86,1.86,0,0,0-.72.67A2.25,2.25,0,0,0,20.54,189.46Z"/><path d="M30.83,194.12a5.62,5.62,0,0,1-1.92-.33,4.29,4.29,0,0,1-1.57-1l.72-1.31a5.44,5.44,0,0,0,1.38.84,3.62,3.62,0,0,0,1.32.27,1.78,1.78,0,0,0,.93-.2.65.65,0,0,0,.36-.61.52.52,0,0,0-.2-.43,1.72,1.72,0,0,0-.56-.28l-.89-.26a14,14,0,0,1-1.46-.55,2.21,2.21,0,0,1-.88-.67,1.81,1.81,0,0,1-.29-1.05,2.18,2.18,0,0,1,.4-1.32,2.58,2.58,0,0,1,1.11-.87,4.08,4.08,0,0,1,1.67-.31,4.91,4.91,0,0,1,1.59.26,3.88,3.88,0,0,1,1.37.85l-.81,1.27a5,5,0,0,0-1.14-.68,3,3,0,0,0-1.1-.22,2.21,2.21,0,0,0-.59.08,1,1,0,0,0-.45.24.64.64,0,0,0-.17.48.62.62,0,0,0,.15.44,1.52,1.52,0,0,0,.48.27l.79.27a13.46,13.46,0,0,1,1.6.54,2.59,2.59,0,0,1,1,.69,1.71,1.71,0,0,1,.33,1.11,2.15,2.15,0,0,1-.85,1.81A3.74,3.74,0,0,1,30.83,194.12Z"/><path d="M40,193.58l-.61.24a4.44,4.44,0,0,1-.78.22,3.83,3.83,0,0,1-.83.08,2.61,2.61,0,0,1-1-.19,1.55,1.55,0,0,1-.74-.62,1.93,1.93,0,0,1-.28-1.1v-4.48h-1v-1.54h1v-2.55h2v2.55h1.65v1.54H37.76v3.79a.7.7,0,0,0,.75.76,1.88,1.88,0,0,0,.62-.11l.48-.18Z"/><path d="M49.34,187.85a3.59,3.59,0,0,0-1.63.36,2.13,2.13,0,0,0-1,1V194h-2v-7.78h1.85v1.6a3.52,3.52,0,0,1,1.06-1.27,2.6,2.6,0,0,1,1.37-.51h.4Z"/><path d="M54,194.12a4.45,4.45,0,0,1-1.71-.31,4,4,0,0,1-1.31-.88,4,4,0,0,1-1.12-2.8,4.13,4.13,0,0,1,.5-2,3.76,3.76,0,0,1,1.44-1.47,4.24,4.24,0,0,1,2.21-.56,4.19,4.19,0,0,1,2.21.56,3.8,3.8,0,0,1,1.4,1.47,4.17,4.17,0,0,1,.49,2c0,.12,0,.24,0,.36s0,.23,0,.3H52a2.14,2.14,0,0,0,.35,1,1.86,1.86,0,0,0,.75.67,2.17,2.17,0,0,0,1,.22,2.24,2.24,0,0,0,1.13-.29,1.51,1.51,0,0,0,.73-.77l1.73.48a3.33,3.33,0,0,1-.82,1.06,3.88,3.88,0,0,1-1.25.73A4.5,4.5,0,0,1,54,194.12ZM52,189.46h4.11a2.25,2.25,0,0,0-.34-1,1.86,1.86,0,0,0-.72-.67,2.13,2.13,0,0,0-1-.25,2,2,0,0,0-1,.25,1.86,1.86,0,0,0-.72.67A2.25,2.25,0,0,0,52,189.46Z"/><path d="M62.24,194.12a5.62,5.62,0,0,1-1.92-.33,4.29,4.29,0,0,1-1.57-1l.72-1.31a5.44,5.44,0,0,0,1.38.84,3.62,3.62,0,0,0,1.32.27,1.78,1.78,0,0,0,.93-.2.65.65,0,0,0,.36-.61.52.52,0,0,0-.2-.43,1.72,1.72,0,0,0-.56-.28l-.89-.26a14,14,0,0,1-1.46-.55,2.21,2.21,0,0,1-.88-.67,1.81,1.81,0,0,1-.29-1.05,2.18,2.18,0,0,1,.4-1.32,2.58,2.58,0,0,1,1.11-.87,4.08,4.08,0,0,1,1.67-.31,4.91,4.91,0,0,1,1.59.26,3.88,3.88,0,0,1,1.37.85l-.81,1.27a5,5,0,0,0-1.14-.68,3,3,0,0,0-1.1-.22,2.21,2.21,0,0,0-.59.08,1,1,0,0,0-.45.24.64.64,0,0,0-.17.48.62.62,0,0,0,.15.44,1.52,1.52,0,0,0,.48.27l.79.27a13.46,13.46,0,0,1,1.6.54,2.59,2.59,0,0,1,1,.69,1.71,1.71,0,0,1,.33,1.11,2.15,2.15,0,0,1-.85,1.81A3.74,3.74,0,0,1,62.24,194.12Z"/><path d="M66.68,191.06v-4.87h2v4.43A2.26,2.26,0,0,0,69,192a1.14,1.14,0,0,0,1,.45,2.11,2.11,0,0,0,.77-.15,2.23,2.23,0,0,0,.7-.46A2.66,2.66,0,0,0,72,191v-4.83h2v5.54a.74.74,0,0,0,.11.45.56.56,0,0,0,.37.16V194L74,194a2.49,2.49,0,0,1-.37,0,1.5,1.5,0,0,1-.88-.24,1,1,0,0,1-.39-.68l-.05-.62a3.54,3.54,0,0,1-1.35,1.2,4,4,0,0,1-1.81.4,2.24,2.24,0,0,1-1.85-.78A3.56,3.56,0,0,1,66.68,191.06Z"/><path d="M76,183h2v8.46a1.07,1.07,0,0,0,.18.73.65.65,0,0,0,.5.19,2.12,2.12,0,0,0,.49-.06,2.37,2.37,0,0,0,.45-.15l.27,1.53a3.85,3.85,0,0,1-.94.3,5.17,5.17,0,0,1-1,.1,2,2,0,0,1-1.46-.5,1.9,1.9,0,0,1-.52-1.44Z"/><path d="M85.4,193.58l-.61.24A4.44,4.44,0,0,1,84,194a3.83,3.83,0,0,1-.83.08,2.61,2.61,0,0,1-1-.19,1.55,1.55,0,0,1-.74-.62,1.93,1.93,0,0,1-.28-1.1v-4.48h-1v-1.54h1v-2.55h2v2.55H84.8v1.54H83.15v3.79a.7.7,0,0,0,.75.76,1.88,1.88,0,0,0,.62-.11L85,192Z"/><path d="M86.57,188.35v-2.16h1.64v2.16Zm0,5.62v-2.16h1.64V194Z"/><path d="M307.27,37.08V47.73h-1.69V43h-5.37v4.7h-1.68V37.08h1.68v4.45h5.37V37.08Z"/><path d="M312.88,47.88a4.15,4.15,0,0,1-1.65-.32,3.92,3.92,0,0,1-2.12-2.16,4.17,4.17,0,0,1-.29-1.54,4,4,0,0,1,.51-2,3.93,3.93,0,0,1,1.42-1.47,4.08,4.08,0,0,1,2.15-.56,3.86,3.86,0,0,1,3.51,2,4,4,0,0,1,.49,1.95c0,.12,0,.23,0,.33s0,.19,0,.26h-6.29a2.43,2.43,0,0,0,1.25,2,2.31,2.31,0,0,0,1.12.29,2.58,2.58,0,0,0,1.26-.33,1.72,1.72,0,0,0,.8-.87l1.41.41a3,3,0,0,1-.77,1,3.76,3.76,0,0,1-1.23.72A4.24,4.24,0,0,1,312.88,47.88Zm-2.35-4.59h4.74a2.39,2.39,0,0,0-1.24-2,2.46,2.46,0,0,0-2.28,0,2.38,2.38,0,0,0-1.22,2Z"/><path d="M317.68,45.45a2.12,2.12,0,0,1,.43-1.3,2.77,2.77,0,0,1,1.18-.86A4.66,4.66,0,0,1,321,43a7.79,7.79,0,0,1,1.07.07,4.17,4.17,0,0,1,1,.24v-.49a1.64,1.64,0,0,0-.5-1.27,2,2,0,0,0-1.42-.46,3.47,3.47,0,0,0-1.25.23,8,8,0,0,0-1.24.66l-.56-1.11a6.38,6.38,0,0,1,1.57-.78,5.39,5.39,0,0,1,1.66-.26,3.58,3.58,0,0,1,2.48.82,3,3,0,0,1,.91,2.34v2.89a.6.6,0,0,0,.1.4.43.43,0,0,0,.33.14v1.32l-.4.06h-.3a1.13,1.13,0,0,1-.8-.25,1,1,0,0,1-.31-.6l0-.45a3.37,3.37,0,0,1-1.3,1,3.88,3.88,0,0,1-1.61.36,3,3,0,0,1-1.39-.32,2.53,2.53,0,0,1-1-.87A2.3,2.3,0,0,1,317.68,45.45Zm5,.47a1.61,1.61,0,0,0,.28-.38.74.74,0,0,0,.11-.34v-.88a5.07,5.07,0,0,0-.89-.25,5.69,5.69,0,0,0-.91-.08,2.65,2.65,0,0,0-1.46.36,1.09,1.09,0,0,0-.57,1,1.32,1.32,0,0,0,.19.65,1.53,1.53,0,0,0,.54.5,1.82,1.82,0,0,0,.88.19,2.6,2.6,0,0,0,1-.21A2.11,2.11,0,0,0,322.68,45.92Z"/><path d="M326.73,36.78h1.65v8.71a1.11,1.11,0,0,0,.18.77.64.64,0,0,0,.45.16,2.47,2.47,0,0,0,.56-.06,2.26,2.26,0,0,0,.46-.15l.24,1.31a5,5,0,0,1-.86.25,4.31,4.31,0,0,1-.88.11,1.78,1.78,0,0,1-1.32-.48,1.74,1.74,0,0,1-.48-1.31Z"/><path d="M335.55,47.35c-.14.07-.32.15-.53.23a5,5,0,0,1-.71.21,3.68,3.68,0,0,1-.82.09,2.42,2.42,0,0,1-.94-.18,1.52,1.52,0,0,1-.7-.58,1.84,1.84,0,0,1-.26-1V41.22h-1V39.94h1V37.36h1.65v2.58H335v1.28h-1.71v4.35a.84.84,0,0,0,.26.6.88.88,0,0,0,.58.19,1.84,1.84,0,0,0,.66-.12l.46-.19Z"/><path d="M343.72,47.73h-1.65V43.38a2.61,2.61,0,0,0-.39-1.57,1.27,1.27,0,0,0-1.09-.52,2,2,0,0,0-.9.24,2.68,2.68,0,0,0-.83.64,2.51,2.51,0,0,0-.52.93v4.63h-1.65V36.78h1.65v4.74a3.35,3.35,0,0,1,1.23-1.25,3.31,3.31,0,0,1,1.68-.45,2.68,2.68,0,0,1,1.21.25,2,2,0,0,1,.76.69,2.8,2.8,0,0,1,.39,1,6,6,0,0,1,.11,1.22Z"/><path d="M345.75,49.57l.44.07a3.12,3.12,0,0,0,.35,0,.73.73,0,0,0,.45-.16,1.79,1.79,0,0,0,.38-.57c.13-.28.29-.68.48-1.21l-3.23-7.8h1.73l2.4,6.13,2.13-6.13h1.59l-3.56,9.61a2.75,2.75,0,0,1-.48.8,2.25,2.25,0,0,1-.78.57,2.62,2.62,0,0,1-1.09.21l-.38,0-.43-.09Z"/><rect x="409.35" y="122.42" width="16.19" height="1"/><polygon points="424.81 125.42 429.13 122.92 424.81 120.43 424.81 125.42"/><rect x="409.35" y="251.65" width="16.19" height="1"/><polygon points="424.81 254.64 429.13 252.15 424.81 249.66 424.81 254.64"/><rect x="322.9" y="325.67" width="1" height="16.19"/><polygon points="320.91 341.13 323.4 345.45 325.89 341.13 320.91 341.13"/><rect x="182.07" y="325.67" width="1" height="16.19"/><polygon points="180.07 341.13 182.57 345.45 185.06 341.13 180.07 341.13"/></svg>