<svg id="overlapChart" width="1232" height="492.8" viewBox="0,0, 1232, 492.8" style="touch-action: pan-y; baseline-shift: 0px; clip-rule: nonzero; color: rgba(0, 0, 0, 0.87); color-interpolation: srgb; color-interpolation-filters: linearrgb; color-rendering: auto; cursor: grab; direction: ltr; fill: rgb(0, 0, 0); fill-opacity: 1; fill-rule: nonzero; font: 400 16px / 22.88px -apple-system, &quot;system-ui&quot;, &quot;Segoe UI&quot;, Roboto, &quot;Helvetica Neue&quot;, Arial, sans-serif, &quot;Apple Color Emoji&quot;, &quot;Segoe UI Emoji&quot;, &quot;Segoe UI Symbol&quot;; image-rendering: auto; letter-spacing: normal; marker: none; overflow: hidden; paint-order: normal; pointer-events: auto; shape-rendering: auto; stroke: none; stroke-dasharray: none; stroke-dashoffset: 0px; stroke-linecap: butt; stroke-linejoin: miter; stroke-miterlimit: 4; stroke-opacity: 1; stroke-width: 1px; text-anchor: start; text-decoration: none solid rgba(0, 0, 0, 0.87); text-rendering: auto; visibility: visible; word-spacing: 0px; writing-mode: horizontal-tb;" xmlns="http://www.w3.org/2000/svg" xmlns:xlink="http://www.w3.org/1999/xlink" version="1.1"><g style="transform: translate(20.7983px, 70px); baseline-shift: 0px; paint-order: normal; text-decoration: none solid rgba(0, 0, 0, 0.87);"><path id="dist1" d="M0,387.8L0,383.49193114246964L11.920000000000037,382.5292232488172L23.83999999999999,381.381132226964L35.760000000000026,380.0190242908921L47.67999999999998,378.41138539615474L59.60000000000002,376.523851499101L71.51999999999997,374.31931739158466L83.44000000000001,371.75813700027965L95.35999999999996,368.7984274257248L107.28000000000007,365.3964877642508L119.20000000000005,361.50734183971167L131.11999999999998,357.0854113266082L143.03999999999994,352.08532235493453L154.96000000000006,346.4628445672687L166.88000000000002,340.17595680703823L178.79999999999995,333.18602825352036L190.7199999999999,325.4590980290951L202.64000000000004,316.96723027731093L214.56,307.68991567764954L226.47999999999993,297.61548459098617L238.4000000000001,286.7424918112791L250.32000000000002,275.08102854072024L262.23999999999995,262.6539140137086L274.1600000000001,249.49771745890115L286.08000000000004,235.66356106288157L298,221.21765648587535L309.91999999999996,206.2415314121463L321.83999999999986,190.8319086436539L333.76000000000005,175.1002083177759L345.67999999999995,159.17165379771654L357.5999999999999,143.18397339170753L369.52000000000004,127.28570294693941L381.44,111.63410808743964L393.35999999999996,96.39275889760711L405.2800000000001,81.72880361673896L417.20000000000005,67.81000079899235L429.12,54.801580804488026L441.04000000000013,42.86301685091638L452.95999999999987,32.144792666514775L464.88,22.785257634773757L476.79999999999995,14.907660919199145L488.7199999999999,8.617453253753467L500.64000000000004,3.9999388856206224L512.56,1.118350724249865L524.4799999999999,0.012409401448508106L536.4000000000001,0.6974121407719167L548.32,3.1638806511696203L560.24,7.377779373994088L572.1600000000001,13.281297058689574L584.08,20.794166578928753L596,29.815480871262707L607.9200000000002,40.22594757402885L619.8399999999999,51.89051197067698L631.76,64.66126768870208L643.6800000000001,78.38056762501452L655.5999999999999,92.88424396054387L667.5200000000001,108.00484593254316L679.4399999999999,123.5748071386302L691.3599999999999,139.42946029395503L703.2800000000001,155.40982616838605L715.1999999999999,171.3651144094106L727.12,187.15488655140922L739.0400000000001,202.65084512470193L750.96,217.73822680049074L762.88,232.31679135341423L774.8000000000001,246.30141135283714L786.72,259.622279438964L798.6400000000001,272.22476042037437L810.5600000000001,284.06892396528673L822.4799999999999,295.12880017428654L834.4000000000001,305.3914047461465L846.3199999999999,314.8555828074549L858.24,323.5307208852094L870.1600000000001,331.43537514660255L882.0800000000003,338.595861155858L894,345.04484628692063L905.9199999999997,350.8199808868978L917.8400000000003,355.9625986164089L929.76,360.5165103965753L941.6799999999997,364.52691034185096L953.5999999999999,368.0394061934187L965.5200000000001,371.09918128938864L977.4399999999998,373.75029017124893L989.3599999999999,376.03508564148547L1001.2800000000001,377.99377152166164L1013.1999999999998,379.6640725397458L1025.12,381.0810106907904L1037.0400000000002,382.2767760273731L1048.9599999999998,383.2806790836631L1060.88,384.1191719413408L1072.8000000000002,384.81592521862933L1084.7199999999998,385.39194891286644L1096.64,385.8657459605833L1108.5600000000002,386.25348850997955L1120.48,386.5692081499087L1132.4,386.8249926379492L1144.3200000000002,387.03118296002447L1156.24,387.1965657892276L1168.16,387.32855755734L1180.0800000000002,387.43337738507375L1180.0800000000002,387.8" fill="rgba(48, 57, 79, 1)" clip-path="url(#rectClip1)" style="baseline-shift: 0px; clip-path: url(&quot;#rectClip1&quot;); fill: rgb(48, 57, 79); paint-order: normal; text-decoration: none solid rgba(0, 0, 0, 0.87);"></path><clipPath id="rectClip1" style="baseline-shift: 0px; paint-order: normal; text-decoration: none solid rgba(0, 0, 0, 0.87);"><rect x="0" y="0" height="387.8" width="613.5294117647059" fill="yellow" opacity="0.5" style="baseline-shift: 0px; fill: rgb(255, 255, 0); opacity: 0.5; paint-order: normal; text-decoration: none solid rgba(0, 0, 0, 0.87);"></rect></clipPath><clipPath id="rectClip2" style="baseline-shift: 0px; paint-order: normal; text-decoration: none solid rgba(0, 0, 0, 0.87);"><rect x="613.5294117647059" y="0" height="387.8" width="578.4705882352941" fill="yellow" opacity="0.5" style="baseline-shift: 0px; fill: rgb(255, 255, 0); opacity: 0.5; paint-order: normal; text-decoration: none solid rgba(0, 0, 0, 0.87);"></rect></clipPath><clipPath id="distClip" style="baseline-shift: 0px; paint-order: normal; text-decoration: none solid rgba(0, 0, 0, 0.87);"><use href="#dist2" style="baseline-shift: 0px; paint-order: normal; text-decoration: none solid rgba(0, 0, 0, 0.87);"></use></clipPath><g clip-path="url(#rectClip2)" style="baseline-shift: 0px; clip-path: url(&quot;#rectClip2&quot;); paint-order: normal; text-decoration: none solid rgba(0, 0, 0, 0.87);"><path d="M0,387.8L0,383.49193114246964L11.920000000000037,382.5292232488172L23.83999999999999,381.381132226964L35.760000000000026,380.0190242908921L47.67999999999998,378.41138539615474L59.60000000000002,376.523851499101L71.51999999999997,374.31931739158466L83.44000000000001,371.75813700027965L95.35999999999996,368.7984274257248L107.28000000000007,365.3964877642508L119.20000000000005,361.50734183971167L131.11999999999998,357.0854113266082L143.03999999999994,352.08532235493453L154.96000000000006,346.4628445672687L166.88000000000002,340.17595680703823L178.79999999999995,333.18602825352036L190.7199999999999,325.4590980290951L202.64000000000004,316.96723027731093L214.56,307.68991567764954L226.47999999999993,297.61548459098617L238.4000000000001,286.7424918112791L250.32000000000002,275.08102854072024L262.23999999999995,262.6539140137086L274.1600000000001,249.49771745890115L286.08000000000004,235.66356106288157L298,221.21765648587535L309.91999999999996,206.2415314121463L321.83999999999986,190.8319086436539L333.76000000000005,175.1002083177759L345.67999999999995,159.17165379771654L357.5999999999999,143.18397339170753L369.52000000000004,127.28570294693941L381.44,111.63410808743964L393.35999999999996,96.39275889760711L405.2800000000001,81.72880361673896L417.20000000000005,67.81000079899235L429.12,54.801580804488026L441.04000000000013,42.86301685091638L452.95999999999987,32.144792666514775L464.88,22.785257634773757L476.79999999999995,14.907660919199145L488.7199999999999,8.617453253753467L500.64000000000004,3.9999388856206224L512.56,1.118350724249865L524.4799999999999,0.012409401448508106L536.4000000000001,0.6974121407719167L548.32,3.1638806511696203L560.24,7.377779373994088L572.1600000000001,13.281297058689574L584.08,20.794166578928753L596,29.815480871262707L607.9200000000002,40.22594757402885L619.8399999999999,51.89051197067698L631.76,64.66126768870208L643.6800000000001,78.38056762501452L655.5999999999999,92.88424396054387L667.5200000000001,108.00484593254316L679.4399999999999,123.5748071386302L691.3599999999999,139.42946029395503L703.2800000000001,155.40982616838605L715.1999999999999,171.3651144094106L727.12,187.15488655140922L739.0400000000001,202.65084512470193L750.96,217.73822680049074L762.88,232.31679135341423L774.8000000000001,246.30141135283714L786.72,259.622279438964L798.6400000000001,272.22476042037437L810.5600000000001,284.06892396528673L822.4799999999999,295.12880017428654L834.4000000000001,305.3914047461465L846.3199999999999,314.8555828074549L858.24,323.5307208852094L870.1600000000001,331.43537514660255L882.0800000000003,338.595861155858L894,345.04484628692063L905.9199999999997,350.8199808868978L917.8400000000003,355.9625986164089L929.76,360.5165103965753L941.6799999999997,364.52691034185096L953.5999999999999,368.0394061934187L965.5200000000001,371.09918128938864L977.4399999999998,373.75029017124893L989.3599999999999,376.03508564148547L1001.2800000000001,377.99377152166164L1013.1999999999998,379.6640725397458L1025.12,381.0810106907904L1037.0400000000002,382.2767760273731L1048.9599999999998,383.2806790836631L1060.88,384.1191719413408L1072.8000000000002,384.81592521862933L1084.7199999999998,385.39194891286644L1096.64,385.8657459605833L1108.5600000000002,386.25348850997955L1120.48,386.5692081499087L1132.4,386.8249926379492L1144.3200000000002,387.03118296002447L1156.24,387.1965657892276L1168.16,387.32855755734L1180.0800000000002,387.43337738507375L1180.0800000000002,387.8" id="dist2" fill="rgba(106, 206, 235, 1)" transform="translate(175.2941176470589, 0)" style="baseline-shift: 0px; fill: rgb(106, 206, 235); paint-order: normal; text-decoration: none solid rgba(0, 0, 0, 0.87);"></path></g><path d="M0,387.8L0,383.49193114246964L11.920000000000037,382.5292232488172L23.83999999999999,381.381132226964L35.760000000000026,380.0190242908921L47.67999999999998,378.41138539615474L59.60000000000002,376.523851499101L71.51999999999997,374.31931739158466L83.44000000000001,371.75813700027965L95.35999999999996,368.7984274257248L107.28000000000007,365.3964877642508L119.20000000000005,361.50734183971167L131.11999999999998,357.0854113266082L143.03999999999994,352.08532235493453L154.96000000000006,346.4628445672687L166.88000000000002,340.17595680703823L178.79999999999995,333.18602825352036L190.7199999999999,325.4590980290951L202.64000000000004,316.96723027731093L214.56,307.68991567764954L226.47999999999993,297.61548459098617L238.4000000000001,286.7424918112791L250.32000000000002,275.08102854072024L262.23999999999995,262.6539140137086L274.1600000000001,249.49771745890115L286.08000000000004,235.66356106288157L298,221.21765648587535L309.91999999999996,206.2415314121463L321.83999999999986,190.8319086436539L333.76000000000005,175.1002083177759L345.67999999999995,159.17165379771654L357.5999999999999,143.18397339170753L369.52000000000004,127.28570294693941L381.44,111.63410808743964L393.35999999999996,96.39275889760711L405.2800000000001,81.72880361673896L417.20000000000005,67.81000079899235L429.12,54.801580804488026L441.04000000000013,42.86301685091638L452.95999999999987,32.144792666514775L464.88,22.785257634773757L476.79999999999995,14.907660919199145L488.7199999999999,8.617453253753467L500.64000000000004,3.9999388856206224L512.56,1.118350724249865L524.4799999999999,0.012409401448508106L536.4000000000001,0.6974121407719167L548.32,3.1638806511696203L560.24,7.377779373994088L572.1600000000001,13.281297058689574L584.08,20.794166578928753L596,29.815480871262707L607.9200000000002,40.22594757402885L619.8399999999999,51.89051197067698L631.76,64.66126768870208L643.6800000000001,78.38056762501452L655.5999999999999,92.88424396054387L667.5200000000001,108.00484593254316L679.4399999999999,123.5748071386302L691.3599999999999,139.42946029395503L703.2800000000001,155.40982616838605L715.1999999999999,171.3651144094106L727.12,187.15488655140922L739.0400000000001,202.65084512470193L750.96,217.73822680049074L762.88,232.31679135341423L774.8000000000001,246.30141135283714L786.72,259.622279438964L798.6400000000001,272.22476042037437L810.5600000000001,284.06892396528673L822.4799999999999,295.12880017428654L834.4000000000001,305.3914047461465L846.3199999999999,314.8555828074549L858.24,323.5307208852094L870.1600000000001,331.43537514660255L882.0800000000003,338.595861155858L894,345.04484628692063L905.9199999999997,350.8199808868978L917.8400000000003,355.9625986164089L929.76,360.5165103965753L941.6799999999997,364.52691034185096L953.5999999999999,368.0394061934187L965.5200000000001,371.09918128938864L977.4399999999998,373.75029017124893L989.3599999999999,376.03508564148547L1001.2800000000001,377.99377152166164L1013.1999999999998,379.6640725397458L1025.12,381.0810106907904L1037.0400000000002,382.2767760273731L1048.9599999999998,383.2806790836631L1060.88,384.1191719413408L1072.8000000000002,384.81592521862933L1084.7199999999998,385.39194891286644L1096.64,385.8657459605833L1108.5600000000002,386.25348850997955L1120.48,386.5692081499087L1132.4,386.8249926379492L1144.3200000000002,387.03118296002447L1156.24,387.1965657892276L1168.16,387.32855755734L1180.0800000000002,387.43337738507375L1180.0800000000002,387.8" clip-path="url(#distClip)" id="distOverlap" fill="rgba(0, 0, 0, 1)" style="baseline-shift: 0px; clip-path: url(&quot;#distClip&quot;); paint-order: normal; text-decoration: none solid rgba(0, 0, 0, 0.87);"></path><line x1="525.8823529411765" x2="525.8823529411765" y1="0" y2="387.8" id="mu0" style="baseline-shift: 0px; fill: none; paint-order: normal; stroke: rgb(255, 255, 255); stroke-dasharray: 2px, 2px; text-decoration: none solid rgba(0, 0, 0, 0.87);"></line><line x1="701.1764705882354" x2="701.1764705882354" y1="0" y2="387.8" id="mu1" style="baseline-shift: 0px; fill: none; paint-order: normal; stroke: rgb(255, 255, 255); stroke-dasharray: 2px, 2px; text-decoration: none solid rgba(0, 0, 0, 0.87);"></line><g style="baseline-shift: 0px; paint-order: normal; text-decoration: none solid rgba(0, 0, 0, 0.87);"><text text-anchor="middle" id="x-label" transform="translate(596, 420.3)" style="baseline-shift: 0px; display: block; fill: rgba(0, 0, 0, 0.87); paint-order: normal; text-anchor: middle; text-decoration: none solid rgba(0, 0, 0, 0.87);">Outcome</text><line x1="525.8823529411765" x2="701.1764705882354" y1="-10" y2="-10" id="muConnectLine" class="muConnect" marker-start="url(#arrowLeft)" marker-end="url(#arrowRight)" style="baseline-shift: 0px; fill: none; marker-end: url(&quot;#arrowRight&quot;); marker-start: url(&quot;#arrowLeft&quot;); paint-order: normal; stroke: rgba(0, 0, 0, 0.87); stroke-width: 2px; text-decoration: none solid rgba(0, 0, 0, 0.87);"></line><text x="613.5294117647059" y="-50" class="MuiTypography-h5 fontWeightBold" dominant-baseline="central" text-anchor="middle" id="cohend_float" style="baseline-shift: 0px; display: block; dominant-baseline: central; fill: rgba(0, 0, 0, 0.87); font-weight: 700; font-size: 26.9872px; line-height: 36.0009px; paint-order: normal; text-anchor: middle; text-decoration: none solid rgba(0, 0, 0, 0.87);">Cohen's d: 1.0</text><text x="613.5294117647059" y="-25" class="MuiTypography-body1" dominant-baseline="central" text-anchor="middle" id="diff_float" style="baseline-shift: 0px; display: block; dominant-baseline: central; fill: rgba(0, 0, 0, 0.87); font-size: 18.6672px; line-height: 28.0008px; paint-order: normal; text-anchor: middle; text-decoration: none solid rgba(0, 0, 0, 0.87);">(Diff: 15.0)</text><text x="520.8823529411765" y="-10" class="MuiTypography-body1" dominant-baseline="central" text-anchor="end" id="mu0Label" style="baseline-shift: 0px; display: block; dominant-baseline: central; fill: rgba(0, 0, 0, 0.87); font-size: 18.6672px; line-height: 28.0008px; paint-order: normal; text-anchor: end; text-decoration: none solid rgba(0, 0, 0, 0.87);">Control</text><text x="706.1764705882354" y="-10" class="MuiTypography-body1" dominant-baseline="central" text-anchor="start" id="mu1Label" style="baseline-shift: 0px; display: block; dominant-baseline: central; fill: rgba(0, 0, 0, 0.87); font-size: 18.6672px; line-height: 28.0008px; paint-order: normal; text-decoration: none solid rgba(0, 0, 0, 0.87);">Treatment</text></g></g><g transform="translate(20, 457.8)" style="baseline-shift: 0px; paint-order: normal; text-decoration: none solid rgba(0, 0, 0, 0.87);"><g class="vx-group vx-axis vx-axis-bottom" transform="translate(0, 0)" style="baseline-shift: 0px; paint-order: normal; text-decoration: none solid rgba(0, 0, 0, 0.87);"><g class="vx-group vx-axis-tick" transform="translate(0, 0)" style="baseline-shift: 0px; paint-order: normal; text-decoration: none solid rgba(0, 0, 0, 0.87);"><line class="vx-line" x1="59.22971239276965" y1="0" x2="59.22971239276965" y2="8" fill="transparent" stroke="#222" stroke-linecap="square" style="baseline-shift: 0px; fill: rgba(0, 0, 0, 0); paint-order: normal; stroke: rgba(0, 0, 0, 0.87); stroke-linecap: square; text-decoration: none solid rgba(0, 0, 0, 0.87);"></line><svg x="0" y="0.25em" font-size="10" style="overflow: visible; baseline-shift: 0px; font-size: 10px; line-height: 14.3px; paint-order: normal; text-decoration: none solid rgba(0, 0, 0, 0.87);"><text x="59.22971239276965" y="18" fill="#222" font-family="Arial" font-size="10" text-anchor="middle" style="baseline-shift: 0px; display: block; fill: rgba(0, 0, 0, 0.87); line-height: 14.3px; font-family: Arial; paint-order: normal; text-anchor: middle; text-decoration: none solid rgba(0, 0, 0, 0.87);"><tspan x="59.22971239276965" dy="0em" style="baseline-shift: 0px; paint-order: normal; text-decoration: none solid rgba(0, 0, 0, 0.87);">60</tspan></text></svg></g><g class="vx-group vx-axis-tick" transform="translate(0, 0)" style="baseline-shift: 0px; paint-order: normal; text-decoration: none solid rgba(0, 0, 0, 0.87);"><line class="vx-line" x1="176.0924574908089" y1="0" x2="176.0924574908089" y2="8" fill="transparent" stroke="#222" stroke-linecap="square" style="baseline-shift: 0px; fill: rgba(0, 0, 0, 0); paint-order: normal; stroke: rgba(0, 0, 0, 0.87); stroke-linecap: square; text-decoration: none solid rgba(0, 0, 0, 0.87);"></line><svg x="0" y="0.25em" font-size="10" style="overflow: visible; baseline-shift: 0px; font-size: 10px; line-height: 14.3px; paint-order: normal; text-decoration: none solid rgba(0, 0, 0, 0.87);"><text x="176.0924574908089" y="18" fill="#222" font-family="Arial" font-size="10" text-anchor="middle" style="baseline-shift: 0px; display: block; fill: rgba(0, 0, 0, 0.87); line-height: 14.3px; font-family: Arial; paint-order: normal; text-anchor: middle; text-decoration: none solid rgba(0, 0, 0, 0.87);"><tspan x="176.0924574908089" dy="0em" style="baseline-shift: 0px; paint-order: normal; text-decoration: none solid rgba(0, 0, 0, 0.87);">70</tspan></text></svg></g><g class="vx-group vx-axis-tick" transform="translate(0, 0)" style="baseline-shift: 0px; paint-order: normal; text-decoration: none solid rgba(0, 0, 0, 0.87);"><line class="vx-line" x1="292.9552025888481" y1="0" x2="292.9552025888481" y2="8" fill="transparent" stroke="#222" stroke-linecap="square" style="baseline-shift: 0px; fill: rgba(0, 0, 0, 0); paint-order: normal; stroke: rgba(0, 0, 0, 0.87); stroke-linecap: square; text-decoration: none solid rgba(0, 0, 0, 0.87);"></line><svg x="0" y="0.25em" font-size="10" style="overflow: visible; baseline-shift: 0px; font-size: 10px; line-height: 14.3px; paint-order: normal; text-decoration: none solid rgba(0, 0, 0, 0.87);"><text x="292.9552025888481" y="18" fill="#222" font-family="Arial" font-size="10" text-anchor="middle" style="baseline-shift: 0px; display: block; fill: rgba(0, 0, 0, 0.87); line-height: 14.3px; font-family: Arial; paint-order: normal; text-anchor: middle; text-decoration: none solid rgba(0, 0, 0, 0.87);"><tspan x="292.9552025888481" dy="0em" style="baseline-shift: 0px; paint-order: normal; text-decoration: none solid rgba(0, 0, 0, 0.87);">80</tspan></text></svg></g><g class="vx-group vx-axis-tick" transform="translate(0, 0)" style="baseline-shift: 0px; paint-order: normal; text-decoration: none solid rgba(0, 0, 0, 0.87);"><line class="vx-line" x1="409.81794768688735" y1="0" x2="409.81794768688735" y2="8" fill="transparent" stroke="#222" stroke-linecap="square" style="baseline-shift: 0px; fill: rgba(0, 0, 0, 0); paint-order: normal; stroke: rgba(0, 0, 0, 0.87); stroke-linecap: square; text-decoration: none solid rgba(0, 0, 0, 0.87);"></line><svg x="0" y="0.25em" font-size="10" style="overflow: visible; baseline-shift: 0px; font-size: 10px; line-height: 14.3px; paint-order: normal; text-decoration: none solid rgba(0, 0, 0, 0.87);"><text x="409.81794768688735" y="18" fill="#222" font-family="Arial" font-size="10" text-anchor="middle" style="baseline-shift: 0px; display: block; fill: rgba(0, 0, 0, 0.87); line-height: 14.3px; font-family: Arial; paint-order: normal; text-anchor: middle; text-decoration: none solid rgba(0, 0, 0, 0.87);"><tspan x="409.81794768688735" dy="0em" style="baseline-shift: 0px; paint-order: normal; text-decoration: none solid rgba(0, 0, 0, 0.87);">90</tspan></text></svg></g><g class="vx-group vx-axis-tick" transform="translate(0, 0)" style="baseline-shift: 0px; paint-order: normal; text-decoration: none solid rgba(0, 0, 0, 0.87);"><line class="vx-line" x1="526.6806927849266" y1="0" x2="526.6806927849266" y2="8" fill="transparent" stroke="#222" stroke-linecap="square" style="baseline-shift: 0px; fill: rgba(0, 0, 0, 0); paint-order: normal; stroke: rgba(0, 0, 0, 0.87); stroke-linecap: square; text-decoration: none solid rgba(0, 0, 0, 0.87);"></line><svg x="0" y="0.25em" font-size="10" style="overflow: visible; baseline-shift: 0px; font-size: 10px; line-height: 14.3px; paint-order: normal; text-decoration: none solid rgba(0, 0, 0, 0.87);"><text x="526.6806927849266" y="18" fill="#222" font-family="Arial" font-size="10" text-anchor="middle" style="baseline-shift: 0px; display: block; fill: rgba(0, 0, 0, 0.87); line-height: 14.3px; font-family: Arial; paint-order: normal; text-anchor: middle; text-decoration: none solid rgba(0, 0, 0, 0.87);"><tspan x="526.6806927849266" dy="0em" style="baseline-shift: 0px; paint-order: normal; text-decoration: none solid rgba(0, 0, 0, 0.87);">100</tspan></text></svg></g><g class="vx-group vx-axis-tick" transform="translate(0, 0)" style="baseline-shift: 0px; paint-order: normal; text-decoration: none solid rgba(0, 0, 0, 0.87);"><line class="vx-line" x1="643.5434378829658" y1="0" x2="643.5434378829658" y2="8" fill="transparent" stroke="#222" stroke-linecap="square" style="baseline-shift: 0px; fill: rgba(0, 0, 0, 0); paint-order: normal; stroke: rgba(0, 0, 0, 0.87); stroke-linecap: square; text-decoration: none solid rgba(0, 0, 0, 0.87);"></line><svg x="0" y="0.25em" font-size="10" style="overflow: visible; baseline-shift: 0px; font-size: 10px; line-height: 14.3px; paint-order: normal; text-decoration: none solid rgba(0, 0, 0, 0.87);"><text x="643.5434378829658" y="18" fill="#222" font-family="Arial" font-size="10" text-anchor="middle" style="baseline-shift: 0px; display: block; fill: rgba(0, 0, 0, 0.87); line-height: 14.3px; font-family: Arial; paint-order: normal; text-anchor: middle; text-decoration: none solid rgba(0, 0, 0, 0.87);"><tspan x="643.5434378829658" dy="0em" style="baseline-shift: 0px; paint-order: normal; text-decoration: none solid rgba(0, 0, 0, 0.87);">110</tspan></text></svg></g><g class="vx-group vx-axis-tick" transform="translate(0, 0)" style="baseline-shift: 0px; paint-order: normal; text-decoration: none solid rgba(0, 0, 0, 0.87);"><line class="vx-line" x1="760.406182981005" y1="0" x2="760.406182981005" y2="8" fill="transparent" stroke="#222" stroke-linecap="square" style="baseline-shift: 0px; fill: rgba(0, 0, 0, 0); paint-order: normal; stroke: rgba(0, 0, 0, 0.87); stroke-linecap: square; text-decoration: none solid rgba(0, 0, 0, 0.87);"></line><svg x="0" y="0.25em" font-size="10" style="overflow: visible; baseline-shift: 0px; font-size: 10px; line-height: 14.3px; paint-order: normal; text-decoration: none solid rgba(0, 0, 0, 0.87);"><text x="760.406182981005" y="18" fill="#222" font-family="Arial" font-size="10" text-anchor="middle" style="baseline-shift: 0px; display: block; fill: rgba(0, 0, 0, 0.87); line-height: 14.3px; font-family: Arial; paint-order: normal; text-anchor: middle; text-decoration: none solid rgba(0, 0, 0, 0.87);"><tspan x="760.406182981005" dy="0em" style="baseline-shift: 0px; paint-order: normal; text-decoration: none solid rgba(0, 0, 0, 0.87);">120</tspan></text></svg></g><g class="vx-group vx-axis-tick" transform="translate(0, 0)" style="baseline-shift: 0px; paint-order: normal; text-decoration: none solid rgba(0, 0, 0, 0.87);"><line class="vx-line" x1="877.2689280790443" y1="0" x2="877.2689280790443" y2="8" fill="transparent" stroke="#222" stroke-linecap="square" style="baseline-shift: 0px; fill: rgba(0, 0, 0, 0); paint-order: normal; stroke: rgba(0, 0, 0, 0.87); stroke-linecap: square; text-decoration: none solid rgba(0, 0, 0, 0.87);"></line><svg x="0" y="0.25em" font-size="10" style="overflow: visible; baseline-shift: 0px; font-size: 10px; line-height: 14.3px; paint-order: normal; text-decoration: none solid rgba(0, 0, 0, 0.87);"><text x="877.2689280790443" y="18" fill="#222" font-family="Arial" font-size="10" text-anchor="middle" style="baseline-shift: 0px; display: block; fill: rgba(0, 0, 0, 0.87); line-height: 14.3px; font-family: Arial; paint-order: normal; text-anchor: middle; text-decoration: none solid rgba(0, 0, 0, 0.87);"><tspan x="877.2689280790443" dy="0em" style="baseline-shift: 0px; paint-order: normal; text-decoration: none solid rgba(0, 0, 0, 0.87);">130</tspan></text></svg></g><g class="vx-group vx-axis-tick" transform="translate(0, 0)" style="baseline-shift: 0px; paint-order: normal; text-decoration: none solid rgba(0, 0, 0, 0.87);"><line class="vx-line" x1="994.1316731770836" y1="0" x2="994.1316731770836" y2="8" fill="transparent" stroke="#222" stroke-linecap="square" style="baseline-shift: 0px; fill: rgba(0, 0, 0, 0); paint-order: normal; stroke: rgba(0, 0, 0, 0.87); stroke-linecap: square; text-decoration: none solid rgba(0, 0, 0, 0.87);"></line><svg x="0" y="0.25em" font-size="10" style="overflow: visible; baseline-shift: 0px; font-size: 10px; line-height: 14.3px; paint-order: normal; text-decoration: none solid rgba(0, 0, 0, 0.87);"><text x="994.1316731770836" y="18" fill="#222" font-family="Arial" font-size="10" text-anchor="middle" style="baseline-shift: 0px; display: block; fill: rgba(0, 0, 0, 0.87); line-height: 14.3px; font-family: Arial; paint-order: normal; text-anchor: middle; text-decoration: none solid rgba(0, 0, 0, 0.87);"><tspan x="994.1316731770836" dy="0em" style="baseline-shift: 0px; paint-order: normal; text-decoration: none solid rgba(0, 0, 0, 0.87);">140</tspan></text></svg></g><g class="vx-group vx-axis-tick" transform="translate(0, 0)" style="baseline-shift: 0px; paint-order: normal; text-decoration: none solid rgba(0, 0, 0, 0.87);"><line class="vx-line" x1="1110.9944182751228" y1="0" x2="1110.9944182751228" y2="8" fill="transparent" stroke="#222" stroke-linecap="square" style="baseline-shift: 0px; fill: rgba(0, 0, 0, 0); paint-order: normal; stroke: rgba(0, 0, 0, 0.87); stroke-linecap: square; text-decoration: none solid rgba(0, 0, 0, 0.87);"></line><svg x="0" y="0.25em" font-size="10" style="overflow: visible; baseline-shift: 0px; font-size: 10px; line-height: 14.3px; paint-order: normal; text-decoration: none solid rgba(0, 0, 0, 0.87);"><text x="1110.9944182751228" y="18" fill="#222" font-family="Arial" font-size="10" text-anchor="middle" style="baseline-shift: 0px; display: block; fill: rgba(0, 0, 0, 0.87); line-height: 14.3px; font-family: Arial; paint-order: normal; text-anchor: middle; text-decoration: none solid rgba(0, 0, 0, 0.87);"><tspan x="1110.9944182751228" dy="0em" style="baseline-shift: 0px; paint-order: normal; text-decoration: none solid rgba(0, 0, 0, 0.87);">150</tspan></text></svg></g><line class="vx-line vx-axis-line" x1="0.5" y1="0" x2="1192.5" y2="0" fill="transparent" stroke="#222" stroke-width="1" style="baseline-shift: 0px; fill: rgba(0, 0, 0, 0); paint-order: normal; stroke: rgba(0, 0, 0, 0.87); text-decoration: none solid rgba(0, 0, 0, 0.87);"></line></g></g><defs style="baseline-shift: 0px; paint-order: normal; text-decoration: none solid rgba(0, 0, 0, 0.87);"><marker id="arrowLeft" class="muConnectMarker" viewBox="0 -5 10 10" refX="5" refY="0" markerWidth="6" markerHeight="6" orient="auto" style="baseline-shift: 0px; fill: rgba(0, 0, 0, 0.87); overflow: hidden; paint-order: normal; text-decoration: none solid rgba(0, 0, 0, 0.87);"><path d="M0,0L10,-5L10,5" style="baseline-shift: 0px; paint-order: normal; text-decoration: none solid rgba(0, 0, 0, 0.87);"></path></marker><marker id="arrowRight" class="muConnectMarker" viewBox="0 -5 10 10" refX="5" refY="0" markerWidth="6" markerHeight="6" orient="0" style="baseline-shift: 0px; fill: rgba(0, 0, 0, 0.87); overflow: hidden; paint-order: normal; text-decoration: none solid rgba(0, 0, 0, 0.87);"><path d="M0, -5L10,0L0,5" style="baseline-shift: 0px; paint-order: normal; text-decoration: none solid rgba(0, 0, 0, 0.87);"></path></marker></defs></svg>